P2
# CREATOR: GIMP PNM Filter Version 1.1
100 75
255
117
110
203
226
221
165
217
208
213
235
248
249
249
232
226
232
192
136
125
122
116
160
228
226
236
225
244
246
221
214
235
227
229
237
237
241
237
236
234
233
228
230
237
240
235
194
212
233
232
229
197
162
145
137
158
203
228
232
228
153
154
139
136
131
148
180
210
232
242
247
243
242
244
247
247
249
248
238
216
201
183
186
201
226
229
231
220
209
198
177
162
166
170
181
211
224
235
241
241
242
114
144
211
223
226
224
231
221
225
239
247
248
248
250
239
227
218
162
127
118
134
197
207
224
228
230
228
217
144
179
201
201
209
224
218
230
235
229
228
224
226
235
237
237
234
200
220
231
231
230
222
219
222
207
219
216
227
234
243
157
138
135
131
131
132
135
140
196
226
241
240
233
234
238
242
245
237
222
232
221
225
222
218
236
226
231
232
231
223
212
205
203
205
206
221
231
236
240
242
241
129
205
223
230
222
226
230
216
218
245
242
248
247
247
229
231
238
219
190
201
202
216
218
227
238
230
178
157
141
153
164
157
176
197
220
230
237
227
220
219
225
235
241
247
245
228
230
228
230
222
226
224
233
230
223
231
206
216
169
128
133
129
128
130
135
145
154
178
203
224
223
224
225
229
235
234
233
238
224
225
223
222
210
233
236
240
243
241
234
232
227
227
228
227
231
235
238
242
242
241
207
222
215
218
224
223
227
213
218
224
223
241
246
244
230
225
234
221
216
223
216
219
222
246
249
239
172
140
146
149
143
134
150
192
219
224
228
226
219
213
220
229
234
240
246
239
236
240
230
226
226
186
226
235
224
234
226
123
126
130
127
125
132
140
146
171
174
184
191
181
180
201
217
221
223
222
213
214
206
205
184
216
155
225
235
240
242
230
245
239
237
238
238
240
239
239
240
242
242
242
213
226
223
220
196
171
163
184
210
219
228
246
247
246
238
210
216
189
224
230
220
224
251
249
249
243
204
137
149
155
139
135
157
194
218
226
227
221
220
209
212
226
235
243
244
246
249
251
238
230
229
217
230
237
202
238
207
146
126
127
125
152
178
210
207
229
215
178
170
159
160
186
207
217
208
198
195
201
191
173
172
181
160
201
232
238
243
212
232
210
211
244
244
244
244
242
241
242
241
242
217
227
201
192
149
131
122
125
192
222
226
234
241
240
238
175
131
112
134
186
216
211
246
250
249
246
213
142
147
146
140
156
184
208
221
225
227
218
218
211
210
219
228
240
241
247
251
250
244
237
228
213
209
196
143
166
162
146
132
148
186
178
205
229
226
222
209
167
226
175
174
190
207
220
217
195
188
196
188
181
181
169
169
197
221
237
243
216
222
209
208
243
240
222
235
242
242
242
241
242
218
212
193
183
137
114
121
107
132
210
219
223
231
243
232
184
124
120
115
173
217
219
248
249
249
243
196
141
142
142
162
188
208
215
224
219
216
220
216
215
204
211
224
235
239
245
250
249
245
236
218
197
182
177
153
148
140
137
139
218
224
225
201
233
225
222
189
219
239
205
194
203
215
226
220
206
193
195
194
189
192
189
196
217
213
212
243
215
197
184
200
242
204
210
214
244
242
242
241
242
226
223
231
165
129
91
121
107
120
218
219
223
237
239
233
229
207
127
133
177
198
207
249
250
248
238
175
137
139
152
188
211
212
213
217
221
212
213
215
214
202
200
219
232
237
240
246
248
245
237
223
191
147
146
151
149
148
132
131
193
229
229
218
210
198
205
190
231
228
204
215
216
216
220
214
205
187
192
197
192
184
223
212
211
216
226
180
158
134
133
143
157
205
208
230
243
243
241
241
241
225
219
222
178
138
126
113
108
133
217
220
224
229
230
224
229
224
184
193
204
195
215
247
250
247
232
172
133
141
179
209
223
224
224
218
211
207
203
207
208
207
206
217
230
231
237
245
247
246
240
230
203
163
141
142
147
145
146
181
171
201
224
187
161
150
144
176
212
204
216
220
221
216
212
208
201
188
191
197
194
183
197
217
216
219
202
161
153
149
138
148
134
173
222
225
224
232
242
242
244
234
225
225
211
145
129
118
125
188
189
223
233
226
204
219
224
218
215
217
213
207
227
248
250
246
230
171
144
183
221
240
239
235
233
226
209
199
196
202
208
210
211
215
227
228
235
242
246
245
242
231
210
182
153
136
136
133
175
238
237
234
200
162
137
124
134
130
187
220
220
220
224
216
206
200
193
184
192
199
202
194
206
224
229
232
182
162
148
139
133
123
124
137
217
219
222
226
243
235
222
238
233
230
211
211
194
187
213
218
218
123
144
125
158
215
225
225
217
215
196
180
215
241
246
240
224
162
165
204
229
238
241
242
236
230
217
209
203
204
212
213
216
216
223
225
232
239
245
245
244
236
224
201
165
135
133
131
136
188
234
243
197
155
131
111
136
124
160
212
213
216
225
211
202
196
187
187
193
198
207
219
224
227
228
230
199
150
139
137
127
123
117
157
209
213
217
219
230
242
240
237
231
228
229
218
220
214
216
223
219
178
124
113
144
213
220
226
228
227
201
180
206
231
235
226
202
147
166
196
215
225
230
239
245
237
226
210
206
199
201
202
208
216
218
219
230
235
241
246
246
242
232
217
188
142
132
131
135
146
204
246
203
151
140
132
132
119
157
201
212
208
205
203
196
188
185
190
197
199
208
205
216
221
201
222
241
209
156
139
129
123
157
200
183
202
219
223
234
243
243
236
233
227
222
218
221
218
217
216
225
202
122
114
165
224
233
232
230
226
220
208
205
221
218
195
155
145
146
145
140
139
173
216
238
239
228
205
187
169
167
176
192
210
208
219
228
233
237
243
245
244
236
222
195
161
138
133
134
140
208
232
222
164
138
132
124
135
201
210
185
175
188
191
187
179
187
198
197
200
212
205
208
201
222
239
239
234
197
181
209
198
212
221
215
149
144
211
236
244
245
235
231
226
224
220
222
222
219
213
203
127
123
137
199
230
225
226
227
233
226
217
219
218
199
163
145
147
141
134
132
129
130
175
217
230
215
192
157
135
131
139
168
198
213
214
227
230
235
240
240
239
234
221
198
173
149
133
126
198
239
234
230
212
181
173
168
206
223
225
233
190
173
178
173
172
188
200
199
204
209
207
208
213
237
239
232
237
164
197
206
213
226
225
229
203
192
205
232
246
242
229
231
223
224
220
224
217
219
220
207
191
196
228
214
205
198
193
207
225
228
217
217
212
189
151
154
154
145
132
126
129
132
150
193
212
203
184
142
129
124
126
156
190
208
208
219
227
232
235
235
234
231
219
200
180
154
134
128
143
226
202
219
220
210
232
214
222
224
222
210
170
165
164
154
159
187
197
203
208
210
212
216
218
239
235
231
176
152
187
218
217
191
227
213
143
140
196
232
246
241
228
212
201
210
222
235
221
220
220
206
212
233
239
223
215
214
184
181
195
207
211
205
181
144
159
173
168
169
154
143
160
166
182
202
203
194
177
145
127
121
135
169
192
212
210
209
218
228
231
231
228
224
217
201
180
152
133
129
130
121
168
227
218
201
207
173
232
231
232
155
168
165
160
150
165
181
192
201
205
207
215
220
215
192
153
178
138
152
142
179
174
126
124
119
124
151
207
236
241
238
228
209
145
156
218
230
223
225
201
213
213
211
217
219
218
209
196
164
156
172
182
181
148
144
151
163
164
171
170
169
184
204
205
195
194
195
185
167
148
148
161
183
200
211
212
204
210
218
224
228
228
218
212
194
170
142
129
131
131
129
131
175
173
162
156
150
163
196
164
178
186
198
224
164
170
177
186
193
200
204
212
217
212
187
150
153
147
146
144
135
130
127
125
124
150
186
217
237
237
237
227
192
135
122
163
213
228
228
210
215
211
182
186
197
203
191
162
178
151
149
140
153
151
140
139
144
155
169
185
194
197
201
204
208
206
205
200
194
186
186
188
198
202
201
206
201
203
211
219
222
217
210
202
176
144
135
137
138
136
130
132
143
150
149
145
142
147
152
183
249
231
225
238
226
240
208
177
184
190
192
205
203
201
184
135
141
144
141
131
127
124
129
127
136
167
208
233
237
236
236
208
155
151
122
124
195
224
225
217
199
177
141
145
160
181
170
160
165
172
165
153
141
140
136
137
147
149
173
205
222
218
212
214
215
214
212
215
209
209
210
202
190
190
187
187
198
204
214
223
221
208
213
209
189
157
137
139
141
137
131
130
141
147
145
145
143
141
142
185
246
244
227
240
229
245
190
205
176
207
217
222
213
192
178
130
133
160
136
140
141
137
138
134
146
180
221
236
234
229
232
213
240
181
129
121
159
201
215
209
170
130
114
109
123
154
181
173
176
181
177
169
154
143
127
147
167
174
183
209
235
233
226
226
220
213
208
210
213
212
210
202
174
165
157
172
199
205
226
224
216
214
218
226
217
189
145
141
142
133
128
128
134
141
145
145
144
149
253
221
242
246
225
234
236
211
229
213
213
214
217
216
208
174
183
142
129
150
139
166
175
184
164
140
165
191
220
222
219
219
223
228
232
134
132
148
182
201
214
214
189
129
111
107
116
153
183
179
182
182
181
179
169
155
145
163
196
203
195
209
230
232
226
225
217
203
187
204
200
203
200
195
169
146
151
179
199
206
219
219
216
214
219
227
227
201
148
137
135
133
131
132
135
138
142
146
145
200
251
249
242
205
179
170
191
220
159
203
223
220
212
216
197
207
222
165
143
146
151
158
141
150
175
171
187
206
211
216
212
187
169
204
213
201
172
213
216
212
214
217
202
147
115
113
122
151
176
173
156
162
176
181
179
170
156
174
204
213
203
204
217
217
210
217
216
204
191
210
209
193
187
189
178
155
168
196
214
219
216
213
205
203
213
221
219
199
164
160
145
138
134
134
136
137
138
141
140
131
185
233
204
173
169
157
157
213
228
228
227
209
182
190
193
216
203
153
145
135
153
153
140
139
152
174
198
209
219
195
178
200
221
211
218
221
211
227
228
219
214
221
220
192
154
140
150
162
164
151
132
139
165
179
183
186
180
191
203
207
199
186
191
193
206
221
222
218
217
223
218
194
195
213
210
184
182
203
221
224
214
193
174
168
185
198
208
206
204
195
163
137
134
132
134
136
137
137
129
211
238
211
177
141
163
147
131
198
225
226
205
151
127
123
159
202
204
193
148
133
154
152
144
151
164
179
191
186
183
206
227
231
217
220
219
220
215
225
240
224
217
225
232
215
190
173
170
178
171
153
140
148
163
170
172
186
205
207
208
203
175
152
147
163
203
222
223
222
222
221
212
198
205
220
217
205
202
210
220
221
203
163
145
140
146
174
200
212
216
198
165
137
132
133
132
133
135
132
162
255
255
218
171
164
163
142
129
207
233
228
167
127
109
109
117
180
208
204
151
137
148
154
159
169
176
162
161
184
208
225
231
231
218
213
233
226
216
230
237
236
226
224
231
217
208
184
187
199
195
192
193
184
181
175
168
187
208
217
216
194
152
140
135
142
195
222
222
223
215
189
160
150
178
207
217
214
215
219
225
219
181
146
136
133
132
156
188
199
185
163
142
134
134
132
128
131
128
126
145
121
104
195
174
165
150
135
160
229
234
240
201
119
103
105
106
185
213
210
175
160
153
158
156
145
140
141
161
185
209
226
229
229
218
215
226
237
233
236
235
233
229
227
216
207
208
184
195
222
215
220
218
206
195
178
170
182
206
219
216
191
147
137
134
136
185
216
219
213
184
152
130
124
134
167
199
207
213
223
230
220
179
142
133
132
129
158
192
200
182
147
128
127
129
129
130
131
132
128
122
119
184
253
203
163
150
155
214
235
224
208
151
143
131
112
129
183
193
194
166
154
161
159
152
139
135
132
149
178
203
215
223
224
219
221
234
236
236
237
236
237
231
231
217
206
199
185
206
224
230
230
227
213
195
175
163
172
197
219
219
200
156
142
133
164
212
223
221
199
164
142
131
129
131
136
182
206
214
222
228
219
188
150
137
133
140
177
208
222
215
183
128
125
128
134
134
133
131
130
124
121
237
250
163
202
165
214
238
240
238
210
178
158
148
147
167
143
157
164
168
163
144
151
143
136
135
127
124
156
186
205
217
219
219
235
236
235
237
237
237
238
237
230
219
205
191
198
207
221
229
233
223
205
186
160
151
160
195
217
219
212
189
166
161
190
227
224
221
202
154
142
133
127
123
129
186
217
217
217
213
214
201
185
159
160
172
200
215
221
213
183
128
123
124
128
136
134
132
129
121
184
254
136
149
167
141
228
235
237
239
187
210
204
183
172
185
137
143
159
166
168
166
151
140
136
129
125
123
141
177
198
211
216
216
235
234
237
236
236
237
232
232
232
224
203
195
214
216
209
217
222
215
192
160
146
145
155
186
214
218
218
206
198
196
203
224
220
214
203
163
139
133
124
120
136
190
218
217
206
199
205
214
207
194
203
203
213
217
214
197
147
115
120
175
217
146
169
134
127
121
120
109
110
181
147
134
207
232
236
168
198
216
210
196
152
204
163
134
156
166
169
163
156
147
136
130
132
142
149
173
194
207
213
213
234
236
235
235
236
232
232
232
233
231
221
213
224
227
209
219
217
191
156
137
142
144
145
169
188
204
214
210
208
216
208
206
211
206
211
201
171
146
140
140
180
205
214
217
205
197
209
217
214
211
220
219
215
211
202
166
182
192
108
233
235
246
243
195
121
116
115
114
112
131
132
135
139
210
197
148
212
196
213
189
122
194
164
149
159
166
167
164
162
157
152
140
145
156
167
175
193
206
210
212
238
239
238
238
237
234
230
232
235
233
221
228
225
227
217
224
227
208
131
131
133
139
141
142
155
180
206
196
200
219
196
179
175
202
219
216
206
202
193
186
198
211
215
207
202
204
214
214
210
213
216
218
212
191
161
126
237
232
172
233
237
234
234
199
115
113
111
111
109
117
126
129
125
122
129
142
149
146
208
156
112
133
143
152
159
164
168
175
176
171
158
151
150
164
174
182
193
201
205
206
240
238
235
234
239
239
236
238
231
239
223
229
227
229
221
224
232
224
225
121
132
132
133
135
138
161
176
164
179
202
183
141
144
211
220
219
216
216
211
204
184
212
216
199
186
201
211
206
205
205
202
206
196
162
139
136
187
225
234
203
237
231
235
162
113
115
144
106
104
108
115
124
127
128
130
129
121
113
127
126
117
117
143
155
163
168
176
181
188
179
156
138
130
146
164
175
183
190
194
195
241
235
222
217
225
236
242
223
223
225
230
234
233
218
228
228
219
221
221
124
131
127
127
128
124
130
131
125
145
167
152
133
139
161
177
213
219
200
216
210
154
168
189
172
180
192
201
191
195
190
175
185
177
147
228
243
218
229
235
193
215
222
220
93
172
252
250
117
131
132
135
140
134
126
123
120
118
112
124
132
118
118
141
160
162
162
167
179
185
176
154
129
114
132
151
164
173
178
179
180
236
221
181
157
175
213
230
230
224
230
232
188
158
154
179
213
213
221
208
126
125
123
124
125
122
122
120
119
121
130
133
134
140
134
124
155
164
138
192
195
140
131
142
160
175
187
190
184
176
173
164
158
151
123
144
207
238
232
188
162
150
154
142
225
229
236
224
161
171
166
154
151
143
143
135
128
127
120
134
138
119
127
140
147
146
147
160
171
174
165
139
115
116
131
146
160
164
165
164
162
230
195
139
125
124
162
219
239
236
237
185
158
146
136
131
180
223
238
245
175
120
118
119
123
125
126
124
114
117
124
135
132
137
137
128
120
122
123
127
138
142
148
151
159
166
166
168
163
161
159
156
151
133
252
255
223
169
190
172
150
144
138
136
214
228
225
233
219
147
149
141
151
170
164
153
150
147
141
141
140
137
145
149
144
140
144
163
174
169
156
127
112
118
132
147
157
162
162
160
153
232
204
140
124
125
158
228
226
234
230
159
130
142
130
120
147
221
234
242
215
138
130
128
133
141
142
137
121
115
120
128
128
131
137
132
125
118
117
129
140
148
154
153
149
149
147
144
143
145
147
148
140
115
252
246
245
255
177
154
130
139
129
122
169
221
223
231
242
124
139
160
177
166
165
168
164
162
158
146
143
149
154
151
145
142
145
164
173
168
151
121
116
119
131
147
159
165
167
165
157
218
218
197
165
160
204
225
228
233
215
158
138
147
124
113
174
214
223
228
210
146
148
152
149
149
150
146
132
114
117
122
123
122
133
134
125
112
114
125
131
135
135
136
148
154
152
146
141
139
138
131
122
117
109
147
160
158
174
145
124
149
125
117
168
216
224
210
113
137
154
185
174
170
168
164
168
161
159
155
139
142
150
151
145
144
147
159
165
163
148
123
118
115
124
142
158
169
174
173
167
204
220
229
222
212
221
227
231
233
216
158
147
139
119
110
176
213
227
235
207
186
159
164
164
161
160
150
139
115
114
118
116
119
131
135
122
108
113
118
116
120
128
136
156
164
162
157
144
134
125
122
121
119
113
131
200
232
169
153
146
134
124
119
195
220
224
231
232
131
191
199
195
172
161
162
151
139
144
147
138
121
135
151
149
148
151
159
168
165
151
128
117
112
111
126
148
165
176
179
175
202
206
218
229
228
223
233
230
233
237
190
141
136
125
150
214
225
225
233
230
207
166
174
168
169
164
155
139
115
111
111
112
115
127
134
131
118
114
110
115
124
136
144
160
168
165
158
145
136
132
128
122
117
161
245
235
230
215
165
152
137
129
179
161
169
220
228
242
123
226
225
228
228
171
136
118
138
140
144
146
123
124
149
149
148
149
160
167
164
155
139
120
107
102
117
145
167
179
184
180
212
199
198
218
224
222
230
229
227
232
228
195
178
176
182
225
227
237
225
156
162
178
181
169
163
161
152
137
111
110
111
111
112
124
135
145
132
115
108
117
132
136
144
163
171
173
165
145
138
137
134
123
107
226
236
238
226
242
189
205
140
212
219
238
217
228
227
224
136
227
222
212
210
149
171
174
125
134
138
136
129
129
137
141
147
144
149
160
166
163
149
131
114
108
127
156
172
187
188
185
219
209
201
205
223
231
227
216
225
225
231
220
207
219
217
205
231
232
230
229
187
161
148
161
178
167
157
137
110
109
109
107
106
127
143
148
138
117
111
117
131
137
143
158
166
169
164
148
141
147
143
135
123
130
155
187
232
228
232
245
129
240
235
227
235
236
227
219
176
225
217
206
202
168
202
222
162
130
129
121
111
109
119
132
143
141
145
159
171
172
163
146
134
135
152
171
182
186
184
181
223
209
198
208
224
234
235
229
229
229
227
229
212
221
217
175
209
228
230
210
177
205
200
159
148
167
161
140
111
106
107
151
174
175
162
175
142
115
106
111
126
135
143
157
164
163
164
153
149
155
157
149
135
111
82
236
253
177
234
248
82
251
238
224
214
210
236
225
174
211
216
207
192
206
210
223
183
122
118
110
98
98
107
126
133
134
139
160
172
176
172
166
159
163
171
181
190
185
178
174
216
198
185
198
213
229
235
234
227
231
220
234
227
223
220
210
205
220
226
212
196
190
194
203
188
153
149
147
134
167
142
196
223
214
210
216
199
127
110
106
112
133
146
162
169
166
162
155
151
160
165
154
137
114
95
96
96
189
231
249
71
192
241
239
215
194
137
229
170
155
152
161
188
207
211
212
229
158
116
105
97
98
103
115
118
118
132
153
163
176
182
176
176
179
184
189
187
183
172
168
208
172
165
194
206
225
227
217
207
214
232
232
225
226
225
223
225
226
215
216
219
212
209
196
191
188
169
128
168
220
209
202
227
215
213
216
204
129
115
111
113
133
151
165
176
172
159
150
148
154
163
161
152
123
97
88
90
160
250
142
84
83
221
226
222
218
224
158
146
143
131
132
152
209
209
218
240
138
111
131
111
99
99
106
106
105
123
144
160
176
180
180
187
185
190
186
179
173
167
167
211
185
176
212
230
225
208
171
148
152
203
223
219
211
235
224
232
218
218
225
218
223
221
211
203
175
164
172
158
212
215
214
225
215
213
212
183
142
152
122
119
139
158
171
183
171
154
137
134
146
163
169
157
134
102
88
87
83
77
75
77
91
236
227
230
230
212
154
142
138
132
128
131
192
218
222
160
229
239
227
233
87
99
98
97
97
114
136
153
168
171
179
184
182
187
181
172
165
160
164
220
208
192
207
228
226
171
151
141
126
166
221
220
197
238
225
214
197
217
226
213
222
228
224
221
209
200
216
208
198
208
210
196
178
189
188
168
200
211
180
114
134
159
178
185
168
149
125
124
145
165
169
159
131
107
86
84
84
78
73
70
99
234
220
225
232
194
156
140
117
141
124
128
188
217
219
236
224
220
211
231
87
101
155
97
97
107
123
140
157
167
174
176
174
181
176
169
159
160
163
225
217
200
205
228
219
157
147
142
121
146
213
228
204
224
174
164
199
221
218
212
223
229
224
229
221
221
221
225
222
183
166
149
139
140
144
194
211
208
170
99
129
154
171
181
172
159
145
146
161
171
169
157
140
109
83
84
83
77
69
66
70
102
173
177
181
153
156
134
128
144
130
122
188
216
217
224
224
213
204
202
113
238
231
218
88
99
114
130
149
162
165
169
173
173
169
162
156
156
161
221
210
200
206
232
220
158
153
136
118
151
211
224
179
157
135
137
181
220
210
194
200
210
219
224
228
198
225
230
229
183
146
133
129
128
134
190
212
210
186
119
117
140
156
173
173
172
170
172
172
174
168
148
127
98
87
87
84
75
68
68
71
79
113
218
238
227
158
145
144
135
132
187
217
220
216
220
214
208
201
146
219
218
225
196
86
93
99
124
143
154
157
163
166
169
162
153
154
156
161
204
194
183
179
201
221
189
150
132
138
186
220
226
183
163
195
207
196
187
190
225
205
152
224
219
210
186
223
233
227
168
140
118
127
126
123
171
211
211
212
152
102
119
134
157
167
170
177
179
168
162
155
122
100
93
92
89
82
75
69
68
68
83
238
224
229
233
202
160
152
146
143
229
217
210
214
211
172
157
158
151
204
212
201
161
188
92
91
119
140
153
159
162
163
161
155
149
151
157
164
186
171
159
148
179
223
220
179
189
191
214
222
211
176
168
205
227
224
216
203
218
220
179
223
216
206
192
173
209
210
163
142
132
127
116
160
183
178
199
176
127
103
102
111
131
146
158
162
164
156
136
125
96
87
87
89
87
82
74
69
65
65
71
241
232
228
234
247
116
216
106
224
223
223
219
205
157
141
131
124
120
151
187
215
217
231
100
94
115
137
152
157
159
158
156
149
148
153
161
169
163
147
139
128
180
230
207
165
200
226
226
215
150
147
162
188
221
230
218
217
217
218
215
214
216
224
233
222
217
215
181
144
167
211
170
231
228
209
228
230
107
117
109
102
109
122
130
130
125
120
101
87
79
83
88
87
85
78
72
76
93
98
99
124
131
239
233
238
112
255
174
221
212
210
216
214
140
131
123
113
105
131
210
210
211
216
105
97
113
131
146
150
146
147
149
146
145
153
162
170
150
143
135
127
141
178
156
150
161
204
228
202
125
133
151
191
227
225
216
212
221
222
184
209
214
214
229
234
224
203
195
177
225
226
232
218
220
223
221
236
142
140
132
117
105
97
95
94
88
74
70
70
73
77
83
84
83
77
83
120
132
127
119
116
150
235
236
180
120
255
193
225
214
214
229
167
137
128
113
117
113
130
211
208
213
235
99
92
107
124
137
138
135
139
145
147
144
153
160
169
145
143
137
129
123
131
144
153
150
152
179
137
122
129
148
198
231
228
197
211
203
173
155
140
172
197
213
217
223
195
229
226
216
218
225
219
218
216
219
222
143
187
168
124
111
94
83
75
71
70
69
67
68
72
78
79
80
78
104
134
133
148
185
179
117
210
216
120
155
255
136
172
220
230
150
164
142
127
103
109
113
144
128
142
134
96
86
93
97
115
129
131
130
132
139
144
148
157
165
173
137
139
134
124
118
130
142
154
145
134
177
128
125
124
148
194
222
218
231
216
161
146
138
133
129
154
216
221
177
222
229
227
226
217
225
221
217
213
223
177
229
227
238
153
122
93
83
77
74
73
68
66
66
67
72
77
82
80
108
175
134
175
219
216
194
229
219
111
178
212
102
96
199
213
215
211
157
137
126
124
159
217
217
100
91
86
91
96
101
115
123
129
133
136
144
147
150
158
167
173
139
138
133
129
127
125
134
164
210
161
241
233
107
217
184
178
212
221
221
202
151
140
135
125
122
119
166
185
214
217
225
228
228
218
208
177
157
165
149
215
218
228
233
218
135
104
83
78
76
73
69
64
59
62
69
79
85
81
184
228
217
172
220
215
225
226
185
187
217
114
105
134
218
211
215
216
175
202
189
214
123
227
220
213
85
87
92
100
109
117
128
133
139
145
151
155
160
166
168
169
139
138
136
131
130
128
120
209
218
222
235
229
186
234
238
165
208
225
230
194
142
109
124
119
114
111
193
213
215
216
224
203
241
212
158
141
125
125
148
202
218
215
215
222
189
103
85
81
76
73
66
61
55
55
67
83
92
90
156
227
228
200
206
216
225
202
183
224
229
148
98
160
215
213
214
207
160
208
206
209
171
157
227
242
102
94
93
107
121
132
139
141
141
147
152
159
160
161
160
159
141
136
135
136
135
134
203
226
215
221
231
227
223
232
224
184
218
219
226
211
134
126
123
119
120
113
202
213
217
204
171
117
130
168
150
132
115
123
109
158
212
215
219
218
147
103
83
78
74
68
64
60
56
53
69
89
98
137
149
191
230
215
163
161
158
151
216
218
200
90
94
84
165
231
195
95
188
206
207
210
180
114
158
171
106
99
93
110
130
146
147
144
144
144
153
155
156
154
153
152
138
141
176
146
154
149
183
231
225
219
222
219
220
228
229
230
219
213
223
217
158
125
126
126
117
149
206
210
220
216
232
236
235
160
145
111
116
117
107
124
148
177
181
164
150
118
84
75
71
64
62
64
62
61
81
96
142
228
231
223
187
167
146
137
135
124
168
167
128
129
111
87
90
95
93
98
178
214
207
209
145
118
110
105
113
108
108
129
144
154
153
147
144
141
144
146
145
142
142
143
147
212
232
210
189
184
230
230
238
186
166
151
172
218
221
222
219
209
210
212
214
158
140
133
156
203
200
210
219
222
224
228
218
157
143
106
121
120
114
157
215
202
195
169
153
135
102
73
65
63
64
68
70
73
89
102
132
224
231
231
196
156
129
122
133
117
141
196
219
223
183
83
89
92
97
98
105
120
100
83
100
110
116
123
137
145
151
160
161
159
157
149
141
134
134
135
133
130
126
125
241
227
228
226
222
209
221
230
228
166
147
139
120
189
219
223
219
222
212
214
206
210
202
203
143
213
211
181
216
227
224
216
221
199
145
127
121
115
125
182
204
214
218
214
142
126
112
85
59
62
67
74
79
81
97
105
106
153
206
224
180
150
128
138
124
112
126
184
197
189
118
107
103
95
94
98
103
104
102
99
96
104
123
143
159
173
180
180
173
164
155
144
135
127
130
132
129
124
119
114
223
193
201
233
214
183
220
235
218
163
149
132
117
128
207
209
218
217
193
185
205
208
206
207
142
181
208
199
115
178
209
212
219
190
191
151
141
137
185
211
216
210
218
232
131
121
111
91
64
64
69
78
86
91
99
101
182
241
239
230
155
149
137
127
113
114
148
194
205
216
196
122
124
122
105
102
119
132
140
136
112
126
141
157
163
177
190
191
181
167
156
141
126
118
121
123
124
121
113
109
162
152
138
188
201
221
192
168
192
152
137
134
121
115
209
223
227
181
177
191
207
209
211
211
156
123
222
204
135
208
214
206
175
224
224
160
201
224
185
210
211
220
203
185
123
121
110
94
66
63
69
80
92
97
99
105
138
186
153
115
216
156
136
128
118
136
192
206
204
214
161
132
139
143
135
128
136
152
162
160
160
164
160
162
158
165
169
178
176
170
160
145
135
127
130
124
119
119
113
108
142
139
125
141
218
223
213
235
236
167
151
138
121
122
203
218
225
224
179
178
196
186
219
222
147
144
155
141
145
153
176
157
222
220
219
145
216
218
187
205
211
214
182
132
128
120
107
85
56
58
70
84
93
97
100
106
105
91
126
237
225
200
132
173
162
193
213
212
220
171
139
139
151
154
144
148
148
162
177
180
185
185
175
170
169
173
159
153
161
150
144
145
144
132
130
131
137
139
128
115
119
145
119
139
207
220
189
228
231
217
148
137
127
176
201
201
213
219
184
182
169
155
193
154
163
171
173
162
140
122
136
169
217
215
221
110
221
222
218
110
204
228
115
114
111
100
88
67
54
65
79
89
93
95
101
108
103
102
247
233
222
217
133
223
206
199
201
205
206
153
138
138
153
159
151
160
156
165
177
184
194
186
180
184
192
193
174
159
176
181
160
141
150
143
144
162
166
158
146
130
152
127
111
162
200
207
199
224
201
232
234
202
195
212
219
211
192
194
195
187
173
153
132
152
177
196
197
173
139
106
103
131
206
231
135
103
210
225
205
104
99
102
102
99
96
89
73
66
75
82
88
91
92
93
102
105
104
97
112
238
230
185
135
220
215
201
203
157
130
134
131
123
137
151
154
163
163
164
171
182
190
178
184
198
209
208
186
170
180
195
164
131
122
117
122
162
182
175
164
151
147
128
135
211
203
197
192
192
189
207
211
167
227
218
208
230
170
175
189
184
161
145
142
169
189
202
207
189
149
109
95
104
113
113
89
96
158
233
123
98
97
96
94
93
88
82
78
83
93
96
96
90
90
91
101
104
102
100
80
129
122
146
157
226
193
172
201
136
123
124
118
114
119
137
138
159
154
149
160
181
180
175
195
187
172
161
139
143
149
141
121
105
109
108
131
161
186
191
182
171
147
180
211
207
211
199
189
186
188
202
210
208
217
224
208
223
184
184
158
150
161
172
176
197
207
216
216
204
162
109
89
96
104
101
92
94
89
83
93
91
92
93
90
86
83
81
85
96
101
105
99
93
87
88
89
139
143
135
169
154
140
241
228
228
248
149
194
206
112
111
111
111
113
122
126
142
140
129
157
170
159
181
179
128
105
99
117
145
136
104
89
91
97
106
123
140
155
185
197
184
129
235
178
222
182
182
184
184
197
210
215
208
215
229
194
192
190
183
157
156
193
207
204
208
218
220
218
200
158
113
92
87
95
99
93
93
97
95
94
95
100
99
96
86
78
79
90
102
105
108
102
91
80
81
71
170
232
234
232
231
204
195
165
215
223
218
182
153
151
129
107
108
112
113
113
119
122
117
138
140
162
187
146
103
91
90
128
155
147
98
89
84
84
92
104
111
141
180
203
194
160
242
144
239
146
160
173
186
202
213
216
211
210
210
199
187
162
145
154
189
202
213
212
214
222
226
216
195
159
120
94
80
93
97
91
96
101
111
113
105
109
111
107
96
86
79
85
97
103
106
103
97
89
80
123
216
206
224
223
156
141
130
124
114
124
165
121
105
102
106
107
107
104
102
99
103
106
114
123
149
171
137
103
92
90
85
126
144
130
99
94
82
86
82
91
116
143
169
201
201
153
203
110
145
130
146
165
182
203
216
220
221
223
221
204
165
145
166
181
182
195
211
221
223
223
220
216
197
169
118
82
83
103
114
101
98
105
111
121
118
120
114
110
101
91
81
79
85
98
105
103
105
104
91
111
175
161
121
152
154
145
133
128
112
120
149
168
151
109
117
111
106
104
100
99
98
93
107
136
168
164
127
89
85
88
85
110
128
109
101
99
88
88
87
117
175
194
172
161
173
113
123
132
117
115
136
163
189
209
222
225
228
229
198
156
160
173
191
169
163
188
210
225
222
219
211
203
187
152
100
82
86
104
125
129
102
103
107
115
124
121
113
108
101
92
84
79
82
97
107
106
106
112
106
95
90
92
137
243
211
154
122
145
142
193
166
101
124
171
139
120
112
106
101
99
99
105
123
145
176
159
111
85
98
96
92
105
115
98
99
100
92
83
88
147
208
225
197
140
150
213
228
220
229
139
123
168
193
214
228
234
218
172
173
207
213
182
195
174
161
187
204
218
221
218
210
195
186
163
119
101
92
102
125
143
128
106
106
109
119
120
113
107
105
100
91
86
94
98
112
114
115
117
110
105
103
100
135
229
229
230
232
127
118
118
133
211
110
98
106
124
125
112
105
101
103
125
122
139
161
168
144
126
139
129
108
105
94
88
92
97
91
82
82
125
158
161
143
149
167
220
220
212
210
232
198
170
199
219
234
199
173
215
230
223
219
190
200
193
182
195
207
216
217
220
215
200
193
174
158
145
121
108
120
139
141
128
110
113
110
109
110
118
124
121
108
103
107
111
111
113
106
110
109
111
111
103
98
108
107
158
162
118
131
129
118
108
99
100
113
132
134
121
111
107
104
118
122
121
140
162
170
165
164
140
113
90
78
82
85
90
83
87
86
107
124
142
166
148
148
221
224
211
215
228
198
177
204
220
173
189
235
237
231
221
219
193
210
218
204
202
210
213
211
213
203
193
193
192
186
182
167
137
123
130
136
143
127
110
108
98
98
114
134
144
131
118
116
115
114
110
101
102
100
106
113
112
99
99
101
113
122
124
126
131
125
112
104
103
122
141
139
131
122
109
105
103
101
111
114
127
140
142
138
109
88
77
78
79
84
90
85
83
90
143
174
202
185
144
122
223
211
197
210
230
174
177
185
147
201
238
236
235
227
210
215
205
213
214
213
215
211
211
206
198
192
189
198
208
203
197
185
154
136
125
133
140
134
117
119
101
90
110
135
156
150
127
113
111
110
108
101
97
96
103
112
111
105
97
100
110
118
123
129
130
126
119
122
126
138
146
141
132
123
109
102
98
99
99
106
118
137
131
112
92
78
78
79
80
83
90
85
77
83
135
198
210
178
116
117
