P2
# CREATOR: GIMP PNM Filter Version 1.1
80 103
255
130
134
144
152
161
170
180
184
189
193
199
201
202
199
198
195
191
188
184
181
175
168
162
153
142
132
127
130
130
132
128
128
125
126
129
127
127
127
129
129
128
129
129
131
131
130
131
130
130
132
131
130
130
131
132
134
131
133
130
129
128
129
127
128
127
125
122
122
120
121
119
119
120
117
111
142
213
251
252
252
132
139
149
156
166
172
178
188
193
199
202
203
206
206
205
204
203
200
196
192
184
178
171
163
153
140
130
124
126
127
128
126
126
126
126
125
125
126
129
129
127
129
130
131
131
133
134
132
131
132
131
132
130
133
132
130
132
131
129
131
132
129
129
129
127
125
123
122
121
122
120
120
119
115
112
164
236
253
252
251
134
142
150
159
171
178
182
190
195
202
204
209
212
211
209
210
209
207
204
200
193
186
179
169
159
146
134
125
125
127
127
124
125
125
126
126
124
128
130
129
129
131
132
133
133
133
133
132
132
132
132
132
132
133
134
132
132
131
132
130
129
130
129
129
128
127
124
123
123
123
122
120
116
114
116
183
242
254
252
250
139
148
155
166
174
180
189
193
202
205
208
214
215
215
215
215
214
211
210
207
199
194
186
176
166
153
142
126
122
125
124
123
126
126
126
126
125
128
131
128
131
134
133
134
133
133
133
133
134
135
134
132
132
132
133
134
133
131
130
127
129
129
129
129
126
126
122
123
123
122
119
118
110
113
140
201
245
253
250
249
145
154
160
170
179
185
191
199
205
208
211
217
219
221
222
222
221
218
216
211
205
200
190
183
171
154
143
134
127
123
124
122
126
126
127
126
125
127
128
130
131
133
133
134
133
133
135
133
133
133
136
139
135
134
132
132
134
132
130
130
131
132
128
127
126
127
123
122
121
121
120
115
112
143
180
219
247
249
247
250
151
159
167
177
182
190
194
201
208
213
219
221
222
223
223
224
222
221
220
215
208
202
196
187
178
164
149
135
122
121
122
122
124
125
126
125
126
128
128
130
131
131
133
134
133
134
135
136
135
134
134
134
133
133
133
132
132
131
129
129
129
130
128
128
125
125
124
123
120
119
115
114
139
179
219
240
247
246
248
252
157
162
173
183
189
195
200
203
212
215
217
222
220
223
224
224
225
222
217
213
209
205
197
187
178
166
153
136
125
121
121
120
122
124
125
125
127
129
128
130
131
132
135
133
136
133
133
136
136
135
134
133
131
131
130
132
131
131
131
128
130
129
131
128
126
126
125
121
119
117
114
130
173
215
240
249
246
249
251
250
164
173
179
188
192
197
203
209
213
216
218
221
222
223
224
225
225
221
215
210
206
203
197
188
179
166
152
136
122
122
122
122
123
123
125
123
125
126
128
128
130
133
131
134
135
135
136
134
136
136
133
133
134
132
130
131
131
132
132
130
129
129
130
128
124
123
121
121
119
114
118
154
205
235
248
246
248
252
252
247
170
176
186
191
198
202
208
209
214
216
218
220
222
221
222
222
223
221
216
210
203
200
194
185
177
165
152
137
121
119
121
123
119
120
123
122
125
126
125
129
131
130
133
131
134
133
135
136
136
134
136
136
134
132
132
132
132
133
133
130
128
129
131
129
125
123
125
123
118
113
128
176
222
248
250
251
251
252
252
231
176
183
189
195
200
205
210
211
213
218
217
217
220
220
219
220
221
219
215
210
205
198
191
181
175
163
150
136
123
119
122
122
123
123
121
123
124
126
126
127
129
129
131
132
131
134
136
137
134
135
136
134
136
134
132
131
132
132
131
130
132
130
128
126
125
124
121
121
119
113
136
186
233
252
248
250
249
251
247
209
183
190
194
198
203
208
211
214
215
216
217
216
219
219
219
219
219
217
213
207
200
193
184
175
169
157
148
134
120
120
120
122
123
124
122
122
123
125
125
126
128
128
129
130
131
133
134
135
134
135
135
133
133
134
133
131
132
132
131
134
133
130
128
126
127
126
121
119
121
116
132
183
230
248
248
244
236
237
233
163
190
198
201
203
208
210
212
214
214
215
216
216
219
218
218
218
217
214
211
204
195
190
179
170
164
152
142
123
119
121
121
122
123
123
122
121
121
121
125
128
126
129
130
129
132
132
132
133
135
134
134
135
132
132
133
134
134
132
131
131
130
131
128
126
126
125
122
120
120
115
121
163
209
228
234
217
186
176
179
124
196
199
204
209
209
212
215
216
217
217
216
215
217
216
216
214
217
210
205
203
191
183
171
162
154
142
131
120
118
122
122
120
122
121
124
122
121
122
122
126
126
123
138
135
126
129
132
131
133
132
135
133
133
133
134
132
133
132
132
134
133
130
129
127
124
122
121
121
119
117
113
132
171
194
190
159
115
110
116
109
201
204
206
210
213
215
216
216
217
217
218
216
216
216
214
213
212
207
203
196
186
176
164
152
145
133
123
116
117
119
118
120
123
123
122
119
121
118
167
209
186
161
226
236
167
122
128
131
127
126
128
129
126
133
130
134
130
133
132
131
132
129
128
126
122
123
122
119
117
118
114
114
123
140
128
109
108
111
111
112
208
206
209
211
216
216
216
216
216
217
219
217
217
215
212
209
206
202
198
189
180
172
159
143
134
128
120
113
117
117
119
119
121
123
120
120
121
161
241
249
243
239
249
247
238
149
122
122
127
148
133
133
136
124
130
121
132
132
130
128
128
128
126
123
125
123
121
119
116
116
118
115
116
113
112
111
114
111
116
113
211
213
213
212
216
217
217
213
215
217
219
220
217
214
210
207
203
197
190
183
173
164
151
134
124
120
119
115
118
119
120
120
119
120
120
117
125
220
250
244
239
243
244
245
248
209
119
150
216
247
229
235
234
204
234
166
119
129
132
129
128
126
123
124
123
122
123
119
116
118
117
115
116
115
114
113
115
113
114
114
214
213
215
214
216
216
216
216
216
217
219
218
216
212
207
203
197
192
184
179
166
158
142
126
121
114
112
115
117
117
118
120
121
120
121
110
158
245
243
243
237
237
239
242
244
242
186
239
247
245
243
249
244
249
250
253
159
120
127
130
126
126
125
121
120
121
119
120
119
116
117
117
115
116
113
115
112
113
114
115
216
215
214
215
215
215
214
215
215
215
216
213
213
210
206
199
193
186
176
170
156
144
131
117
109
126
137
120
109
117
120
119
121
120
120
111
189
253
239
242
237
236
236
238
242
245
249
247
240
241
242
243
243
245
249
249
226
124
125
126
125
123
124
121
121
119
118
118
116
117
117
116
114
114
115
114
114
114
115
115
218
216
216
216
216
215
214
216
211
210
211
209
207
207
204
197
192
182
172
163
150
130
119
130
150
202
228
202
155
113
114
119
119
121
119
117
218
249
240
238
235
237
237
238
238
246
245
240
239
237
242
242
238
241
246
248
245
154
116
121
126
122
121
123
119
117
118
117
117
114
116
117
112
116
115
115
115
115
112
111
219
219
216
215
217
216
213
212
209
208
207
205
201
201
199
196
187
181
171
161
146
170
163
201
238
242
239
240
230
187
118
121
118
121
119
122
229
249
238
239
236
237
235
236
238
247
241
237
237
237
241
239
235
239
244
244
249
200
117
121
120
119
121
121
117
117
117
114
116
116
114
116
113
114
112
114
111
112
112
111
219
219
218
214
213
212
210
211
210
207
203
198
198
195
194
189
181
176
166
156
151
229
247
242
237
237
234
234
239
243
194
121
116
120
117
129
238
244
235
237
234
235
233
235
238
246
239
236
235
236
238
236
233
239
243
244
248
222
119
120
117
119
121
120
116
115
117
116
113
114
116
115
117
113
114
113
114
113
111
112
220
218
218
217
213
212
210
208
205
203
197
190
190
186
185
179
176
167
158
148
148
229
246
234
232
232
233
231
233
239
249
191
108
120
118
132
243
243
238
238
233
234
232
235
239
245
236
235
232
235
237
234
236
238
241
242
246
227
123
119
119
120
118
119
116
116
115
116
114
113
116
115
112
112
112
112
111
111
111
112
220
217
215
216
216
212
208
205
203
196
189
186
179
175
174
170
167
160
151
142
138
221
246
236
229
230
231
230
232
236
243
230
152
111
118
129
241
239
237
238
233
233
235
232
241
244
234
233
229
234
236
233
234
237
240
241
245
226
120
118
118
120
117
116
116
115
114
112
114
114
114
112
112
112
111
111
110
109
110
110
220
219
217
214
212
208
205
203
198
192
183
177
169
166
164
160
158
150
140
133
124
204
246
234
229
230
230
229
231
233
234
232
213
134
114
127
234
244
235
237
232
234
232
234
243
241
233
232
228
235
235
232
232
238
241
242
243
221
118
115
117
115
116
116
117
114
114
114
111
112
113
112
110
111
112
112
110
110
111
110
220
221
219
212
208
206
204
197
191
187
179
170
161
154
152
148
147
139
132
120
115
178
244
235
229
224
226
228
231
233
233
227
234
196
115
120
226
243
237
239
237
236
230
235
245
238
235
231
229
238
233
233
230
237
239
240
242
212
112
117
114
119
117
114
116
112
112
114
112
112
111
111
110
111
111
111
110
110
110
109
218
218
217
211
207
202
196
192
187
179
170
160
151
144
141
140
133
129
123
118
114
149
240
236
231
227
227
231
230
232
229
230
231
230
161
109
213
245
236
238
237
237
232
235
248
239
234
229
229
235
231
229
230
238
240
241
241
192
109
118
117
117
115
115
114
111
111
110
112
111
110
109
110
112
111
109
110
110
110
107
215
215
213
211
204
194
191
184
180
172
163
153
140
135
131
127
125
119
120
117
114
130
225
238
232
226
226
227
226
227
225
230
229
234
206
115
193
245
237
239
236
234
231
236
248
237
233
228
231
234
230
231
233
237
236
241
239
165
108
116
117
114
114
112
113
109
109
109
109
110
108
109
110
110
109
110
111
111
112
109
214
212
208
206
201
196
187
181
173
165
153
141
129
123
121
119
116
116
117
118
116
115
197
237
235
228
226
225
227
225
227
227
230
232
229
138
158
245
235
237
236
234
233
238
247
236
232
225
234
234
231
231
234
235
238
235
235
135
112
117
115
116
114
113
114
110
106
108
107
106
107
108
108
108
108
108
109
109
110
107
211
206
204
202
197
193
184
177
168
160
146
130
123
118
112
114
117
118
116
113
117
110
158
238
236
228
225
226
224
225
227
225
229
230
234
177
130
237
238
237
233
233
232
236
244
236
230
226
234
231
229
229
234
239
238
238
222
110
114
114
115
113
112
112
105
107
108
104
104
103
102
104
103
105
107
103
109
108
108
107
204
203
200
197
193
184
178
170
165
156
141
127
118
127
154
168
162
148
134
116
109
108
122
222
237
230
226
225
226
226
224
225
225
231
232
215
114
215
242
235
233
234
231
240
245
234
227
228
233
229
229
231
238
240
235
247
175
101
113
113
115
114
112
108
110
102
97
115
140
164
184
175
136
98
102
104
105
107
107
106
200
198
197
194
186
178
171
169
164
153
139
128
125
187
237
242
242
233
226
201
169
121
97
168
245
230
228
225
225
226
227
225
227
231
231
232
135
186
241
233
233
235
234
239
242
234
225
228
232
228
229
229
240
237
243
225
110
108
110
112
113
112
109
107
96
109
178
221
237
250
253
253
233
142
97
103
104
104
105
102
196
195
194
189
180
174
169
166
160
149
139
119
135
220
241
240
238
244
245
242
242
225
162
109
214
240
227
225
223
229
229
227
224
231
232
234
170
152
241
234
232
237
231
234
240
232
226
229
230
227
230
235
236
234
247
139
104
111
111
111
109
107
106
99
141
232
251
246
243
248
249
248
246
149
87
97
100
100
104
106
192
192
189
183
178
171
168
165
159
147
133
128
118
199
239
238
237
237
238
236
238
240
240
190
153
227
232
225
221
226
231
227
227
229
230
233
198
124
223
238
234
230
230
231
239
224
222
227
231
229
230
235
234
240
192
101
109
106
107
108
108
98
95
165
247
246
242
242
244
245
243
242
248
181
93
103
104
109
114
118
187
187
184
179
175
172
168
164
158
145
148
206
194
182
225
240
239
236
232
232
231
232
234
238
210
206
234
227
223
224
228
230
227
227
231
233
209
114
189
235
229
213
217
223
229
220
222
224
225
226
228
232
235
225
126
107
106
107
104
98
100
123
179
244
240
238
238
239
240
244
246
245
246
238
148
109
119
125
125
128
181
179
179
175
170
170
168
161
155
139
151
240
249
238
231
238
243
239
234
233
230
230
231
231
234
225
228
235
227
227
227
230
229
229
230
235
214
140
180
215
210
194
199
201
205
219
212
219
220
224
226
227
235
144
101
109
106
105
94
133
198
232
244
240
237
236
238
238
243
244
242
241
246
254
215
114
133
136
137
140
174
174
171
170
166
163
158
152
148
135
123
183
250
246
243
242
243
240
238
234
234
233
232
231
232
230
229
235
236
229
225
231
231
228
227
235
202
178
179
179
164
177
178
169
172
193
183
192
207
213
219
232
143
98
110
105
107
97
175
240
247
242
235
232
229
240
240
240
239
238
240
246
245
248
194
131
144
149
153
153
165
167
163
162
158
155
150
146
142
134
125
109
181
246
246
240
238
238
237
236
232
233
234
231
231
232
232
230
237
233
229
228
224
209
213
217
180
174
172
158
154
164
162
164
162
160
157
178
185
193
210
142
95
111
105
106
111
194
252
244
232
232
228
230
235
237
233
235
234
239
244
245
240
239
172
148
154
159
163
166
160
157
153
153
151
148
145
141
140
133
125
113
109
162
227
250
246
240
236
233
231
231
233
235
234
232
230
231
233
231
232
229
209
189
186
183
182
164
162
144
146
164
167
155
144
150
166
165
168
178
161
146
118
101
97
145
220
248
238
230
228
230
232
234
233
232
232
235
243
244
239
236
235
218
160
160
164
168
170
171
154
152
151
153
148
147
146
141
137
131
120
113
107
102
117
169
220
246
249
239
232
232
231
230
232
231
234
232
235
228
204
199
175
182
177
163
158
176
161
167
176
153
152
134
156
150
149
164
150
165
162
175
128
129
160
235
240
232
227
228
230
231
230
229
229
233
238
243
239
237
237
233
235
180
160
169
173
177
176
175
153
151
149
149
149
147
146
138
130
118
106
105
102
98
94
90
94
122
175
237
248
237
234
233
230
232
232
233
232
223
202
189
162
170
171
145
165
156
150
150
150
140
160
139
152
149
126
121
140
164
154
164
172
194
224
229
225
227
231
230
227
227
228
229
234
241
240
232
234
234
232
226
180
161
172
176
176
175
173
170
149
149
147
148
148
143
138
132
140
168
197
210
215
206
188
159
130
102
88
108
193
242
241
236
236
234
231
234
228
203
191
180
163
177
173
159
180
157
178
151
168
152
143
130
128
141
152
142
145
138
139
151
164
177
205
214
228
230
229
224
223
230
234
234
236
234
231
233
234
233
227
193
182
182
177
172
169
166
168
169
149
149
148
145
147
140
139
184
233
252
255
254
254
252
251
250
243
222
180
133
101
140
203
234
244
245
241
239
212
184
176
187
168
175
166
161
150
161
152
148
163
144
136
160
152
139
147
128
163
140
123
137
148
158
182
207
222
224
229
228
229
232
232
230
230
230
232
235
233
229
226
232
238
239
233
218
196
170
159
161
151
148
146
144
143
137
183
247
252
251
251
250
247
246
246
243
249
246
245
230
206
138
97
127
159
204
230
225
198
184
172
181
170
175
160
162
139
165
148
171
130
141
151
115
152
137
144
143
117
129
133
152
149
139
169
202
218
224
228
229
229
228
228
230
229
232
231
229
226
227
229
232
235
236
241
237
241
219
158
157
150
149
145
146
140
131
183
243
249
246
245
246
246
246
245
247
247
246
245
243
241
245
183
99
95
93
159
184
188
176
174
170
167
169
166
152
176
149
143
131
159
149
136
136
158
138
150
134
126
162
134
137
144
162
148
195
216
222
221
219
223
226
226
228
228
228
225
223
221
227
229
231
231
232
233
236
237
239
163
145
147
148
144
141
133
127
172
239
242
239
240
240
242
243
242
243
246
245
246
246
245
246
251
216
126
96
128
186
181
171
176
178
172
153
174
149
167
148
149
135
134
139
145
137
119
141
124
134
112
128
114
141
137
145
147
179
204
210
213
221
223
224
224
224
221
219
218
220
223
224
226
227
230
232
231
230
236
227
152
138
146
144
140
133
132
120
177
246
243
241
242
238
240
241
241
242
242
244
242
243
245
246
249
251
235
172
193
181
169
188
167
163
181
153
153
155
147
148
127
135
125
135
141
156
132
139
138
145
103
136
118
143
122
130
149
158
152
111
160
220
221
218
218
218
218
219
221
222
226
228
229
227
231
231
235
235
235
240
181
128
144
141
136
130
122
123
196
245
245
243
245
241
242
243
242
240
241
242
243
242
242
244
246
246
248
236
198
175
164
180
185
154
172
153
152
137
143
138
142
140
144
135
143
145
135
147
135
141
97
119
124
130
107
115
137
149
126
145
217
221
219
221
219
219
219
219
222
223
224
227
229
229
231
231
235
236
237
244
204
126
139
137
131
125
112
128
216
246
241
243
243
242
244
243
243
244
246
246
247
244
245
244
247
245
242
237
202
193
183
150
160
152
179
143
143
140
153
147
140
124
123
122
133
166
126
121
137
140
125
138
131
137
124
145
139
141
161
183
216
217
222
220
221
219
221
223
223
224
228
227
227
231
232
234
235
237
236
244
209
124
135
128
125
121
116
113
177
240
247
245
244
242
244
244
244
246
244
245
245
246
244
246
250
247
231
222
206
185
174
180
185
180
139
143
144
134
132
122
115
137
124
140
145
131
146
144
130
105
150
131
110
122
101
115
132
133
166
201
211
216
219
219
220
221
224
224
225
225
227
228
231
231
231
234
233
236
243
239
166
126
131
123
119
116
114
108
116
170
228
249
248
245
245
245
245
245
245
245
245
244
245
246
247
251
244
226
197
169
166
174
170
157
146
147
139
141
133
120
117
107
99
133
149
154
143
127
146
133
135
110
140
127
96
120
139
141
153
187
206
219
217
220
220
222
221
221
224
224
225
229
228
230
232
231
230
237
244
172
118
127
124
122
116
114
112
115
110
109
130
182
220
240
251
252
251
250
249
250
249
248
247
246
248
245
239
199
172
159
173
180
176
145
162
150
154
123
121
125
108
83
96
144
155
141
138
149
124
135
160
104
119
107
120
121
132
137
138
170
207
217
219
220
222
220
222
223
222
222
223
223
223
228
226
232
243
239
156
108
124
129
121
117
114
116
115
114
113
111
108
107
117
140
174
204
227
238
244
248
250
250
253
253
252
254
240
201
181
173
185
157
159
158
140
136
125
127
119
121
110
105
139
153
154
135
160
114
128
140
105
131
106
107
143
127
131
129
142
177
197
212
221
222
222
222
226
228
227
227
226
226
228
235
239
221
171
113
108
124
129
131
119
116
116
118
120
116
117
115
116
114
111
104
101
103
109
120
131
144
154
166
171
178
182
169
177
183
170
160
174
167
157
169
146
150
143
138
129
130
128
135
150
153
150
135
135
142
130
138
93
132
113
105
123
110
116
117
152
179
208
216
214
219
217
223
225
227
228
227
228
230
228
181
115
86
92
110
120
122
129
132
121
118
116
117
116
118
118
117
116
115
113
115
112
109
105
102
98
95
92
90
88
88
93
89
105
171
173
177
173
170
169
164
138
141
139
140
127
129
141
147
154
148
133
158
139
125
119
112
150
93
115
143
106
103
137
138
151
177
199
205
209
210
212
215
219
220
222
222
223
226
228
198
162
133
102
108
121
122
129
132
121
121
119
118
117
118
119
117
116
116
114
113
114
109
108
108
106
104
104
103
104
99
95
87
84
159
185
186
168
155
157
161
129
135
141
131
156
145
154
129
158
158
140
123
149
133
161
114
100
116
109
111
121
111
137
136
155
188
202
207
207
210
208
211
215
217
219
219
221
222
229
232
236
230
204
113
104
126
127
131
121
121
120
118
120
119
118
117
117
117
115
115
110
110
110
108
107
107
102
98
101
110
136
173
182
167
174
165
173
179
159
174
143
165
142
140
149
143
133
162
144
139
154
122
153
115
108
119
112
133
116
101
125
128
128
132
168
184
205
216
213
213
212
212
214
216
216
222
222
226
222
227
230
235
237
243
150
114
130
132
122
122
121
120
118
118
119
118
117
116
113
112
111
108
107
101
99
108
136
180
224
248
249
245
241
224
185
172
155
158
162
177
147
153
141
149
132
145
140
153
123
145
133
145
121
149
122
151
124
105
110
111
134
116
130
143
148
184
216
218
218
218
217
218
219
219
220
223
225
226
230
231
230
230
234
239
245
167
122
131
121
121
122
120
120
116
117
115
116
115
112
109
108
101
97
122
171
218
247
254
249
240
229
226
226
200
181
177
159
156
169
142
160
147
165
134
175
131
133
150
125
138
118
154
117
135
111
115
103
141
143
112
114
128
136
148
186
199
219
220
220
220
220
221
221
221
223
224
227
228
233
234
237
234
237
239
243
239
151
128
122
122
121
120
120
118
117
114
114
113
111
104
97
128
194
236
250
247
244
243
239
233
229
231
227
223
202
179
161
164
169
147
172
152
161
137
136
160
144
123
159
151
152
141
114
139
107
156
133
121
127
110
120
130
153
163
206
212
218
220
221
224
224
222
224
225
227
228
229
229
229
230
229
235
240
242
241
246
205
129
122
122
120
119
118
120
115
115
115
111
106
101
171
246
252
247
238
240
241
238
235
234
228
226
226
229
210
212
175
157
152
158
142
153
148
159
160
150
136
158
132
107
140
140
109
148
102
120
111
90
119
133
127
143
151
144
162
218
221
221
221
220
223
224
227
228
227
230
231
228
230
230
229
234
235
241
240
244
246
140
122
123
122
119
119
117
115
118
111
104
112
199
255
246
238
236
236
235
236
239
240
234
227
225
226
227
232
225
179
158
166
166
160
169
161
150
159
129
131
172
139
142
130
104
136
104
138
136
121
113
150
151
130
132
115
119
114
140
202
220
227
224
224
226
223
223
226
227
228
229
231
231
227
233
233
235
240
247
245
148
122
123
122
119
118
118
113
116
103
123
209
248
237
236
234
234
237
235
237
239
236
231
226
225
229
233
239
228
203
167
167
171
164
149
139
150
148
149
156
139
137
143
135
140
153
126
158
157
118
135
130
160
179
175
149
105
97
109
121
153
190
229
240
229
222
221
223
226
227
226
225
228
230
230
232
235
239
244
215
126
122
122
121
119
118
114
111
107
120
219
249
235
233
235
235
235
236
238
237
231
229
231
227
229
235
235
235
225
225
212
198
187
172
154
138
153
160
140
138
146
165
133
121
124
126
116
113
133
142
138
125
164
211
232
239
227
178
113
101
118
121
135
181
234
240
230
224
226
226
226
225
226
226
225
229
232
235
240
172
123
121
120
120
120
117
114
105
106
215
245
235
233
231
231
236
238
236
239
234
230
230
231
230
230
237
234
222
227
233
228
225
227
155
164
161
172
155
146
159
135
140
144
156
147
140
137
140
133
135
145
148
181
205
228
241
242
249
237
182
118
107
120
109
114
158
214
233
232
227
227
229
230
226
228
227
230
233
235
159
126
122
122
117
115
113
113
103
191
250
234
232
231
231
233
237
234
234
233
231
230
231
230
232
235
236
227
222
230
238
235
237
238
136
147
176
169
169
162
157
153
139
140
146
166
136
145
155
146
139
163
174
196
212
223
235
241
243
244
248
239
174
116
114
118
109
149
212
233
231
232
228
226
230
230
230
231
233
238
177
122
122
121
117
117
115
106
131
240
238
234
231
232
234
237
236
236
233
232
232
231
232
231
235
236
228
219
227
238
238
237
238
246
123
121
172
188
167
156
155
157
155
162
150
150
145
142
157
185
201
183
201
209
208
220
229
237
242
244
244
244
252
211
132
108
156
225
227
227
228
228
230
230
232
230
229
230
232
212
131
124
118
121
119
117
115
106
133
244
238
234
235
237
236
237
236
233
231
232
233
231
234
237
234
228
215
222
232
237
236
237
237
243
98
128
227
207
200
191
192
182
155
156
168
177
165
176
196
215
223
224
218
216
216
214
219
228
238
243
243
246
242
248
231
121
186
234
227
226
230
228
226
225
228
225
229
227
230
216
154
119
122
120
122
118
116
112
105
205
245
237
236
235
234
232
236
237
234
236
232
235
235
235
230
218
218
230
236
238
237
238
239
233
88
224
233
222
221
215
215
209
86
87
136
184
189
219
217
226
229
233
224
221
218
217
219
222
230
238
241
245
247
243
243
229
194
233
228
228
229
229
229
223
223
224
225
221
225
226
208
130
125
122
122
120
117
114
106
99
182
248
236
236
234
236
236
233
236
236
238
235
235
229
219
221
226
234
237
234
239
240
246
187
165
248
226
230
229
227
229
235
127
77
87
200
220
222
230
234
235
234
231
229
221
220
221
218
222
232
239
240
242
246
244
244
228
229
226
226
225
227
227
224
222
222
222
224
222
225
224
180
126
124
120
119
117
114
111
97
161
250
238
237
237
236
239
238
239
243
227
225
234
221
222
227
234
237
236
234
238
239
237
161
241
235
229
231
230
229
231
236
173
68
73
208
227
230
237
234
236
234
234
233
229
223
222
222
221
223
233
237
239
242
243
244
242
233
228
228
225
226
228
225
222
220
222
218
221
223
225
215
131
129
124
121
119
116
115
106
127
224
252
249
246
249
251
250
227
170
148
230
228
226
226
230
236
237
232
237
239
241
195
213
246
229
227
232
231
231
239
233
209
72
67
176
236
229
236
236
234
235
236
231
233
231
224
223
222
221
223
231
236
239
241
241
244
238
232
228
224
226
228
227
225
222
222
221
220
220
221
223
132
131
129
124
121
117
118
111
101
99
147
193
202
195
166
114
82
83
189
236
229
227
229
236
234
233
234
242
237
232
192
242
233
227
230
234
230
231
240
232
226
84
70
124
248
226
237
237
238
236
234
237
235
236
230
227
226
225
225
225
228
235
239
240
240
242
238
230
226
226
226
229
228
224
218
221
220
220
221
220
135
131
129
127
125
123
118
114
109
102
84
74
72
72
75
83
90
115
228
230
232
230
231
235
235
233
239
238
244
212
201
238
233
228
235
234
231
234
242
234
230
89
79
85
241
231
233
241
238
234
234
236
238
237
236
233
230
228
226
226
230
230
237
241
243
244
241
232
230
226
224
228
226
227
222
218
220
221
221
218
140
135
134
131
128
123
122
119
111
104
100
94
94
94
92
91
84
153
240
234
231
230
234
236
234
237
241
242
240
171
219
238
230
229
234
234
231
235
245
231
229
83
85
65
198
243
233
238
243
237
235
233
237
238
236
238
235
229
229
228
225
227
233
239
242
243
245
240
229
228
226
227
226
229
223
217
219
221
220
217
139
137
136
133
132
127
122
117
115
106
101
99
97
94
94
91
84
205
247
232
232
232
234
233
235
242
246
247
200
131
246
235
229
229
233
234
230
238
241
235
229
82
85
76
152
248
235
232
242
240
237
235
235
239
238
238
236
227
229
230
229
226
229
231
240
242
244
242
231
231
226
226
225
228
225
221
218
221
221
217
142
140
137
137
132
128
124
120
112
108
104
99
96
94
92
87
96
242
243
234
234
237
234
236
245
248
245
232
90
202
250
234
230
231
233
236
229
241
241
233
232
83
85
81
112
240
240
237
237
243
236
234
237
240
241
239
238
237
187
227
231
229
227
229
235
244
244
243
223
235
231
224
225
226
228
224
220
220
220
220
144
141
138
137
134
129
124
120
114
109
104
98
95
94
92
85
107
253
243
235
239
237
235
246
248
250
238
113
106
254
239
234
229
233
234
237
230
241
241
235
229
78
84
88
88
219
240
241
237
239
239
238
237
239
242
241
240
240
193
130
234
234
230
229
230
240
247
235
189
232
236
231
223
225
229
227
220
219
222
223
147
145
142
138
137
130
125
120
113
110
103
99
97
93
91
84
101
248
247
238
245
238
243
247
252
232
131
66
181
254
236
232
233
235
236
233
234
244
241
235
216
68
85
86
81
187
243
239
239
240
239
239
237
238
240
239
240
239
229
94
147
224
234
228
233
232
255
175
106
211
239
233
229
225
229
230
227
222
224
223
147
145
143
140
138
130
124
120
115
110
105
99
93
93
92
89
80
167
250
247
240
246
249
254
236
112
81
88
232
247
234
233
233
234
233
230
237
244
242
238
206
64
84
84
83
140
246
238
242
242
241
240
236
237
240
241
239
237
233
196
188
190
222
230
231
235
190
88
83
150
223
240
230
230
226
232
229
228
228
221
148
146
141
139
136
131
127
123
118
113
107
103
97
94
92
89
88
74
141
228
248
248
239
195
84
78
80
118
250
243
234
232
232
236
233
233
239
246
246
243
185
66
88
84
83
94
227
243
240
243
241
243
239
239
240
241
243
241
231
218
216
219
206
225
230
237
146
73
77
95
164
227
240
235
230
229
231
229
224
226
150
144
141
138
135
129
125
121
116
109
106
102
97
94
91
88
85
88
76
85
174
170
111
68
84
90
78
139
254
242
232
232
231
234
232
232
242
246
243
246
135
75
87
83
84
73
181
248
244
245
244
243
241
239
239
242
241
243
232
216
216
214
217
214
217
213
186
142
97
75
92
158
224
240
237
231
231
230
225
220
147
147
143
139
137
131
126
121
117
111
106
101
97
95
92
89
87
88
90
85
81
83
85
89
90
89
77
151
255
237
232
234
234
234
231
234
247
245
245
236
94
81
88
85
86
74
124
246
247
245
243
242
242
241
236
240
241
242
232
215
213
213
216
214
217
220
224
216
195
138
82
82
141
212
242
234
230
227
218
200
155
150
146
144
140
133
128
124
119
113
105
100
98
94
92
89
87
88
89
90
91
90
89
90
89
90
77
154
252
238
235
234
235
236
230
240
246
246
249
199
71
87
88
86
84
78
78
218
248
247
244
244
242
243
237
238
243
242
232
216
213
213
213
213
215
218
219
226
228
216
169
90
83
123
202
237
234
214
191
173
154
153
149
146
144
137
131
126
120
115
107
108
100
95
92
89
87
88
89
90
89
92
92
91
89
90
79
147
251
242
236
232
237
234
234
245
247
249
252
113
77
85
86
82
84
82
66
139
255
247
247
246
242
243
239
238
246
242
229
218
215
214
213
217
216
216
218
219
223
227
221
185
88
82
100
166
212
193
177
169
155
153
154
150
144
139
134
126
121
115
110
105
101
97
91
87
86
85
87
89
89
88
91
90
88
88
81
137
254
242
235
237
237
233
238
246
248
253
188
66
85
84
84
84
82
80
77
69
196
253
246
249
241
242
244
233
244
237
222
220
221
217
215
214
214
212
214
221
225
226
229
224
179
96
108
125
172
166
173
166
159
157
156
151
148
143
136
128
122
117
113
107
102
98
93
88
85
85
87
89
89
88
91
90
90
89
85
104
246
241
237
238
239
233
245
249
251
226
101
78
83
82
83
86
81
78
80
71
84
200
255
247
245
241
241
233
225
220
216
219
219
220
219
220
217
214
213
216
221
224
227
228
222
166
141
162
172
175
170
160
162
163
161
157
151
145
140
133
125
120
115
108
107
101
96
87
88
87
87
88
88
88
86
89
93
89
89
77
205
251
241
243
240
240
248
249
249
150
74
79
83
83
83
84
79
77
78
77
74
77
180
246
248
245
232
221
219
220
219
220
221
222
223
223
222
218
219
217
218
221
227
228
232
211
159
173
177
176
152
143
163
166
161
157
152
147
142
135
128
125
119
114
108
102
96
93
89
88
85
85
88
91
91
90
89
91
88
83
103
222
225
231
252
247
251
255
181
69
77
80
82
83
83
81
79
81
79
78
73
68
65
146
205
209
220
226
225
223
222
223
222
223
223
225
225
225
223
218
218
222
225
226
233
227
193
174
172
164
141
123
167
164
163
159
156
151
143
140
134
128
121
116
109
101
97
92
90
89
88
87
88
89
89
90
91
91
91
89
79
81
80
92
154
234
239
164
62
78
79
81
81
80
83
80
77
78
80
78
74
86
158
205
216
221
226
233
231
226
224
223
225
226
223
226
225
227
224
225
224
225
224
226
224
204
184
172
172
168
154
153
170
166
163
159
157
151
144
143
136
130
123
117
110
103
99
94
89
88
88
88
87
88
87
89
91
89
89
90
88
81
82
79
74
124
109
66
85
78
80
79
79
80
80
80
77
78
77
76
78
152
225
230
224
224
223
228
229
230
228
226
224
226
225
225
226
227
226
225
226
226
225
227
216
184
182
166
155
164
144
152
169
166
160
158
154
152
147
142
137
130
124
118
111
105
97
97
95
91
88
88
87
87
89
92
90
90
89
89
87
84
85
83
82
79
77
81
82
82
81
78
79
77
79
78
77
78
78
69
96
190
231
226
222
222
223
228
226
228
233
230
232
230
228
227
228
227
228
225
228
229
229
222
203
177
173
163
141
154
148
149
167
165
161
160
154
151
144
139
136
134
125
117
111
103
99
96
95
91
85
84
85
85
87
87
85
86
88
88
85
85
85
84
81
83
83
81
82
80
77
76
74
76
77
77
77
77
76
68
90
191
228
225
222
221
222
222
222
225
230
234
233
232
232
231
229
230
228
232
230
231
229
220
191
181
173
160
175
165
149
163
166
164
162
161
155
152
145
141
135
129
124
119
107
105
99
96
95
92
88
86
85
84
85
86
86
88
88
88
86
84
83
81
81
82
82
80
79
77
75
75
73
74
76
76
76
75
74
67
107
207
229
224
221
219
221
221
222
223
224
226
232
232
233
235
235
234
234
233
230
230
232
214
179
177
166
131
150
153
139
141
167
166
163
161
157
153
147
141
134
128
122
116
109
107
101
98
96
93
88
84
83
85
85
85
85
85
87
87
86
84
86
81
82
80
79
76
75
77
77
75
74
73
73
73
73
73
71
74
154
230
226
222
222
221
222
222
222
222
225
226
224
227
228
231
233
235
236
235
231
231
226
199
174
172
162
149
153
156
160
156
166
167
165
160
156
153
147
142
133
127
120
115
113
107
103
100
95
92
87
84
82
85
84
85
85
85
85
85
82
84
83
81
81
79
78
78
77
75
74
72
72
72
71
71
73
72
68
77
170
236
226
222
221
220
220
220
220
221
222
224
223
226
228
228
228
230
230
229
231
229
222
196
171
166
170
168
157
162
129
134
170
169
167
164
160
153
148
143
134
127
121
115
113
107
103
100
95
92
86
84
82
82
83
84
85
85
85
85
84
84
83
81
79
78
75
75
75
74
73
72
69
71
70
70
71
73
70
71
133
223
229
221
222
221
221
220
219
220
221
221
222
225
226
228
230
232
231
232
231
231
217
188
171
159
168
170
141
152
147
170
172
168
165
164
156
153
149
142
134
130
126
119
114
107
104
99
97
92
85
84
80
81
82
86
84
84
86
84
82
78
78
78
78
78
75
75
75
75
74
72
69
69
70
70
69
69
74
66
91
176
229
226
224
224
221
220
220
220
221
221
222
224
227
226
228
230
233
231
232
231
204
176
175
152
144
159
152
163
149
145
168
166
164
163
157
152
149
143
139
130
126
120
113
109
104
100
94
90
87
83
77
80
81
83
83
85
86
84
83
82
80
80
80
79
76
73
72
72
72
70
65
67
69
69
69
70
72
69
69
104
184
228
227
224
222
222
222
223
220
221
222
225
225
230
229
229
230
235
231
232
216
174
177
161
146
174
155
131
159
130
165
164
161
158
157
153
148
144
141
135
129
122
116
111
102
100
96
90
85
80
77
81
81
83
84
84
84
83
83
82
81
80
78
76
73
73
72
73
69
67
66
65
69
70
68
69
70
73
71
69
101
172
226
235
227
224
225
226
221
225
224
225
228
230
230
232
237
233
234
228
171
157
176
168
162
153
147
155
170
135
169
166
162
156
153
154
153
146
143
136
129
124
120
112
103
98
95
90
85
80
80
82
82
84
84
84
83
82
84
82
79
80
78
77
73
73
71
72
69
68
65
66
67
68
68
67
70
69
77
72
68
87
147
201
226
229
227
226
225
226
226
227
227
229
231
232
233
230
209
145
86
128
181
173
168
145
160
159
133
155
169
164
159
157
156
158
153
148
142
137
130
125
119
110
100
97
92
88
81
80
78
80
83
82
86
85
84
84
84
84
82
80
78
77
73
73
69
72
68
65
65
66
67
66
68
69
70
74
72
74
73
72
73
106
149
189
206
221
227
231
232
229
229
231
227
212
184
137
93
77
92
159
170
172
164
155
146
144
162
149
168
164
163
159
155
156
152
149
143
138
130
125
118
110
102
97
90
86
82
81
78
80
83
83
86
86
84
83
85
83
82
80
78
76
72
71
70
69
67
66
65
65
66
66
68
69
69
71
72
74
74
75
76
72
76
88
108
125
142
157
162
164
156
141
122
111
105
112
128
138
145
166
177
165
143
159
168
142
162
128
170
167
162
158
155
152
151
146
142
136
131
122
116
108
99
94
89
85
83
84
82
83
85
85
86
86
84
83
84
83
82
80
78
75
73
71
71
68
67
65
66
66
66
67
67
68
70
70
72
73
74
76
79
80
78
79
76
76
78
79
77
73
77
108
158
195
210
219
227
228
234
205
179
174
163
160
155
148
156
122
