P2
# CREATOR: GIMP PNM Filter Version 1.1
30 39
255
136
159
181
196
203
202
196
184
166
140
127
127
126
126
128
128
130
132
131
131
132
131
129
128
125
121
120
117
187
251
147
171
190
206
215
217
215
205
186
157
128
123
125
126
129
132
133
133
133
133
132
131
129
128
126
122
117
129
220
250
163
185
200
214
221
224
222
210
194
167
131
121
123
126
128
132
134
134
135
132
131
130
129
129
124
119
119
203
247
250
178
196
209
215
219
220
219
207
190
165
130
121
121
123
126
130
132
135
135
135
132
131
130
129
123
116
147
245
251
233
195
205
213
215
216
217
214
199
174
151
124
120
122
120
131
133
138
132
130
130
131
132
131
127
124
118
131
208
189
150
207
212
216
216
217
212
203
185
155
128
117
119
120
126
214
219
215
126
168
161
150
126
130
125
122
119
115
123
113
110
214
215
215
216
215
205
189
167
132
117
117
118
119
161
239
236
241
230
243
244
254
148
124
123
119
117
117
114
113
114
218
215
213
208
202
197
180
159
173
226
219
142
115
180
239
235
239
241
237
238
245
208
113
121
117
115
116
113
113
111
218
214
208
199
184
176
162
160
239
232
235
229
126
181
239
232
238
235
232
234
241
222
111
117
115
113
114
112
111
110
218
211
199
184
162
147
136
125
228
227
230
231
206
172
238
236
238
233
232
232
240
209
108
115
112
112
110
111
110
109
211
203
186
167
137
124
118
108
203
230
225
225
225
187
233
234
239
230
232
232
241
173
110
113
109
106
111
107
108
109
200
191
174
154
133
188
192
164
143
238
225
225
229
191
229
233
238
228
230
234
238
117
112
103
127
183
205
144
97
104
190
180
168
151
155
229
237
234
217
203
228
228
229
192
215
230
229
225
229
241
155
104
97
148
238
242
247
208
102
116
174
168
159
144
207
241
241
233
231
231
231
228
227
206
182
180
186
195
214
184
107
120
208
241
235
239
241
238
149
148
156
152
144
124
112
172
214
239
233
231
233
220
187
175
157
153
151
151
168
141
150
222
237
229
234
237
239
203
162
172
149
146
140
186
208
193
161
152
229
245
226
190
168
163
158
155
141
140
148
149
201
229
228
232
233
234
223
201
181
166
149
135
204
252
247
245
249
232
138
143
196
175
168
158
148
142
140
143
132
141
171
220
225
227
228
225
229
235
242
165
143
124
204
242
241
241
243
245
254
183
174
168
162
151
138
133
139
136
118
128
148
165
217
220
218
223
227
231
240
166
131
113
181
253
247
244
244
244
248
231
179
172
146
136
125
127
143
132
129
117
131
179
219
220
222
225
229
232
243
154
120
114
110
138
201
239
248
249
251
212
170
162
144
127
102
136
144
133
122
117
130
164
217
221
225
224
228
226
155
126
119
118
118
113
102
98
103
108
115
153
173
166
141
136
140
151
138
126
115
113
123
174
211
214
221
225
218
138
117
129
121
119
117
116
109
97
132
179
196
193
167
163
147
145
145
138
135
127
116
117
132
182
217
215
218
222
230
237
210
135
121
119
115
111
124
217
240
238
230
222
179
157
154
151
141
137
136
121
114
123
147
206
222
222
226
228
229
233
245
185
122
119
112
135
232
238
235
236
226
231
210
177
159
147
149
139
126
144
126
162
145
125
180
216
221
227
228
229
241
185
121
114
130
232
235
235
234
230
232
231
230
234
142
161
148
149
138
140
157
198
242
220
168
126
187
230
228
229
236
149
119
111
164
244
234
235
232
234
230
222
236
246
133
214
198
125
173
203
221
215
221
240
245
198
207
229
226
225
230
157
124
119
96
210
237
234
228
228
222
234
239
209
229
229
241
109
183
235
235
228
221
225
238
245
233
226
226
221
222
216
132
124
116
123
158
145
128
226
231
235
235
216
233
231
241
141
159
238
236
236
231
226
228
238
242
230
227
225
219
220
138
132
122
106
92
84
161
241
232
243
202
229
229
234
242
142
132
232
240
236
238
232
226
229
242
238
226
225
221
219
143
136
123
110
97
83
187
244
243
226
158
231
233
236
243
133
103
229
238
238
240
230
179
227
233
196
227
226
225
223
146
137
125
112
99
91
99
192
188
97
171
236
233
237
251
106
76
210
243
240
240
239
214
216
217
109
157
232
233
224
150
140
127
113
100
91
86
91
86
90
183
236
235
242
231
75
79
133
255
243
238
241
218
213
216
210
149
124
214
192
155
149
133
117
104
91
85
88
90
88
175
239
237
254
125
82
82
68
197
249
238
230
218
217
213
219
230
158
150
167
164
155
141
125
110
95
87
87
88
89
120
189
224
182
81
82
80
78
80
199
225
222
222
224
223
220
226
220
173
144
166
157
144
131
113
98
90
86
88
89
84
75
101
87
78
78
78
72
139
227
225
227
230
228
227
227
227
190
165
153
165
158
145
130
113
99
92
85
85
86
86
83
80
78
76
74
74
66
185
226
221
222
227
231
234
233
222
171
151
149
167
160
147
128
114
103
92
83
83
84
84
81
78
75
73
70
70
65
189
227
220
220
222
226
229
233
209
164
160
145
166
157
148
134
119
103
91
81
82
83
83
79
77
73
70
66
68
69
93
193
230
227
225
230
235
235
167
169
153
147
165
157
151
138
121
101
87
79
82
85
83
81
76
71
67
65
67
70
72
83
130
176
198
195
170
129
135
171
151
149
