P2
# Created by IrfanView
100 100
255
255 255 255 255 255 255 255 255 255 255 255 255 255 255 255 255 255 
255 255 255 255 255 255 255 255 255 255 255 255 255 255 255 255 
255 255 255 255 255 255 255 255 255 255 255 255 255 255 255 255 
255 255 255 255 255 255 255 255 255 255 255 255 255 255 255 255 
255 255 255 255 255 255 255 255 255 255 255 255 255 255 255 255 
255 255 255 255 255 255 255 255 255 255 255 255 255 255 255 255 
255 255 255 255 255 255 255 255 255 255 255 255 255 255 255 255 255 255 255 255 
255 255 255 255 255 255 255 255 255 255 255 255 255 255 255 255 
255 255 255 255 255 255 255 255 255 255 255 255 255 255 255 255 
255 255 255 255 255 255 255 255 255 255 255 255 255 255 255 255 
255 255 255 255 255 255 255 255 255 255 255 255 255 255 255 255 
255 255 255 255 255 255 255 255 255 255 255 255 255 255 255 255 
255 255 255 255 255 255 255 255 255 255 255 255 255 255 255 255 255 255 255 255 
255 255 255 255 255 255 255 255 255 255 255 255 255 255 255 255 
255 255 255 255 255 255 255 255 255 255 255 255 255 255 255 255 
255 255 255 255 255 255 255 255 255 255 255 255 255 255 255 255 
255 255 255 255 255 255 255 255 255 255 255 255 255 255 255 255 
255 255 255 255 255 255 255 255 255 255 255 255 255 255 255 255 
255 255 255 255 255 255 255 172 255 255 255 255 255 255 255 255 255 255 255 255 
255 255 255 255 255 255 255 255 255 255 255 255 255 255 255 255 
255 255 255 255 255 255 255 255 255 255 255 255 255 255 255 255 
255 255 255 255 255 255 255 255 255 255 255 255 255 255 255 255 
255 255 255 255 255 255 255 255 255 255 255 255 255 255 255 255 
255 255 255 255 255 255 255 255 255 255 255 255 255 255 255 255 
255 255 255 255 255 255 255 100 100 189 255 255 255 255 255 255 255 255 255 255 
255 255 255 255 255 255 255 255 255 255 255 255 255 255 255 255 
255 255 255 255 255 255 255 255 255 255 255 255 255 255 255 255 
255 255 255 255 255 255 255 255 255 255 255 255 255 255 255 255 
255 255 255 255 255 255 255 255 255 255 255 255 255 222 76 35 
36 36 34 149 255 255 255 255 222 76 35 36 36 34 149 255 
255 255 255 255 255 255 255 106 123 115 100 189 255 255 255 255 255 255 255 255 
255 255 255 255 255 255 255 255 255 255 255 255 255 255 255 255 
255 255 255 255 255 255 255 255 255 255 255 255 255 255 255 255 
255 255 255 255 255 255 255 255 255 255 255 255 255 255 255 255 
255 255 255 255 255 255 255 255 255 255 255 255 149 35 41 43 
43 43 43 39 33 228 255 70 36 41 43 43 43 43 37 76 
222 255 255 255 255 255 255 106 123 123 123 115 100 193 230 255 255 255 255 255 
255 255 255 255 255 255 255 255 255 255 255 255 255 255 255 255 
255 255 255 255 255 255 255 255 255 95 255 255 255 255 255 255 
255 255 255 255 255 255 255 255 255 255 255 255 255 255 255 255 
255 255 255 255 255 255 255 255 255 255 255 228 35 43 43 43 
43 43 43 43 43 36 96 39 43 43 43 43 43 43 43 41 
33 255 255 255 255 255 255 106 123 123 123 123 123 115 106 143 234 255 255 255 
255 255 255 255 255 255 255 255 255 255 255 255 255 255 255 255 
255 255 255 255 255 255 255 127 0 0 32 255 255 255 255 255 
255 255 255 255 255 255 255 255 255 255 255 255 255 255 255 255 
255 255 255 255 255 255 255 255 255 255 255 33 43 43 43 43 
43 43 43 43 43 43 41 43 43 43 43 43 43 43 43 43 
39 150 255 255 255 255 255 106 123 123 123 123 123 123 123 118 106 143 234 255 
255 255 255 255 255 255 255 255 255 255 255 255 255 255 255 255 
255 255 255 255 255 215 40 0 0 0 0 128 255 255 255 255 
255 255 255 255 255 255 255 255 255 255 255 255 255 255 255 255 
255 255 255 255 255 255 255 255 255 255 136 39 43 43 43 43 
43 43 43 43 43 43 43 43 43 43 43 43 43 43 43 43 
43 34 255 255 255 255 255 106 123 123 123 123 123 123 123 123 123 118 110 100 
189 255 255 255 255 255 255 255 255 255 255 255 255 255 255 255 
255 255 255 255 32 0 0 0 0 0 0 0 255 255 255 255 
255 255 255 255 255 255 255 255 255 255 255 255 255 255 255 255 
255 255 255 255 255 255 255 255 255 255 150 39 43 43 43 43 
43 43 43 43 43 43 43 43 43 43 43 43 43 43 43 43 
43 36 255 255 255 255 255 106 123 123 123 123 123 123 123 123 123 123 123 123 
115 100 189 255 255 255 255 255 255 255 255 255 255 255 255 255 
255 255 223 0 0 0 0 0 0 0 0 0 128 255 255 255 
255 255 255 255 255 255 255 255 255 255 255 255 255 255 255 255 
255 255 255 255 255 255 255 255 255 255 150 39 43 43 43 43 
43 43 43 43 43 43 43 43 43 43 43 43 43 43 43 43 
43 36 255 255 255 255 255 100 115 115 115 115 115 115 115 115 115 115 115 115 
115 115 106 96 180 255 255 255 255 255 255 255 255 255 255 255 
215 40 0 0 0 0 0 0 0 0 0 0 0 215 255 255 
255 255 255 255 255 255 255 255 255 255 255 255 255 255 255 255 
255 255 255 255 255 255 255 255 255 255 150 39 43 43 43 43 
43 43 43 43 43 43 43 43 43 43 43 43 43 43 43 43 
43 36 255 255 255 255 255 180 189 189 189 189 189 189 189 189 189 189 189 189 
189 189 189 189 180 164 255 255 255 255 255 255 255 255 255 127 
0 0 0 0 0 0 0 0 0 0 0 0 0 40 255 255 
255 255 255 255 255 255 255 255 255 255 255 255 255 255 255 255 
255 255 255 255 255 255 255 255 255 255 143 39 43 43 43 43 
43 43 43 43 43 43 43 43 43 43 43 43 43 43 43 43 
43 35 255 255 255 255 255 255 255 255 255 255 255 255 255 255 255 255 255 255 
255 255 255 255 255 255 255 255 255 255 255 255 255 223 0 0 
0 0 0 0 0 0 0 0 0 0 0 0 0 0 215 255 
255 255 255 255 255 255 255 255 255 255 255 255 255 255 255 255 
255 255 255 255 255 255 255 255 255 255 215 36 43 43 43 43 
43 43 43 43 43 43 43 43 43 43 43 43 43 43 43 43 
41 83 255 255 255 255 255 255 255 255 255 255 255 255 255 255 255 255 255 255 
255 255 255 255 255 255 255 255 255 255 255 255 255 0 0 0 
0 0 0 0 0 0 0 0 0 0 0 0 0 0 40 255 
255 255 255 255 255 255 255 255 255 255 255 255 255 255 255 255 
255 255 255 255 255 255 255 255 255 255 255 76 41 43 43 43 
43 43 43 43 43 43 43 43 43 43 43 43 43 43 43 43 
39 143 255 255 255 255 255 255 255 255 255 255 255 255 255 255 255 255 255 255 
255 255 255 255 214 255 255 255 255 255 255 255 255 32 0 0 
0 0 0 0 0 0 0 0 0 0 0 0 0 0 0 128 
255 255 255 255 255 255 255 255 255 255 255 255 255 255 255 255 
255 255 255 255 255 255 255 172 255 255 255 222 36 43 43 43 
43 43 43 43 43 43 43 43 43 43 43 43 43 43 43 43 
33 255 255 255 255 255 255 255 255 255 255 255 255 255 255 255 255 255 255 255 
255 255 229 117 70 173 255 255 255 255 255 255 255 255 223 0 
0 0 0 0 0 0 0 0 0 0 0 0 0 0 0 0 
255 255 255 255 255 255 255 255 255 255 255 255 255 255 255 255 
255 255 255 255 255 255 230 104 255 255 255 255 76 41 43 43 
43 43 43 43 43 43 43 43 43 43 43 43 43 43 43 36 
228 255 255 255 255 255 255 255 255 255 255 255 255 255 255 255 255 255 255 255 
255 235 70 86 92 76 112 255 255 255 255 255 255 255 255 215 
40 0 0 0 0 0 0 0 0 0 0 0 0 0 0 0 
112 255 255 255 255 255 255 255 255 255 255 255 255 255 255 255 
255 255 255 255 255 255 189 110 255 255 255 255 222 34 43 43 
43 43 43 43 43 43 43 43 43 43 43 43 43 43 39 70 
255 255 255 255 255 255 255 255 255 255 255 255 255 255 255 255 255 255 255 255 
235 70 92 92 92 92 81 117 229 255 255 255 255 255 255 255 
255 127 0 0 0 0 0 0 0 0 0 0 0 0 0 0 
112 255 255 255 255 255 255 255 255 255 255 255 255 255 255 255 
255 255 255 255 255 255 146 115 180 255 255 255 255 228 34 43 
43 43 43 43 43 43 43 43 43 43 43 43 43 39 70 255 
255 255 255 255 255 255 255 255 255 255 255 255 255 255 255 255 255 255 255 112 
71 92 92 92 92 92 92 86 70 235 255 255 255 255 255 255 
255 255 223 0 0 0 0 0 0 0 0 0 0 0 0 247 
255 255 255 255 255 255 255 255 255 255 255 255 255 255 255 255 
255 255 255 255 255 255 112 117 197 255 255 255 255 255 228 34 
43 43 43 43 43 43 43 43 43 43 43 43 39 70 255 255 
255 255 255 255 255 255 255 255 255 255 255 255 255 255 255 255 255 255 112 81 
92 92 92 92 92 92 92 92 92 70 235 255 255 255 255 255 
255 255 255 255 32 0 0 0 0 0 0 0 0 0 0 40 
255 255 255 255 255 255 255 255 255 255 255 255 255 255 255 255 
255 255 255 255 255 230 115 121 110 255 255 255 255 255 255 228 
34 41 43 43 43 43 43 43 43 43 43 39 70 255 255 255 
255 255 255 255 255 255 255 255 255 255 255 255 255 255 255 255 219 70 86 92 
92 92 92 92 92 92 92 92 92 92 71 106 255 255 255 255 
255 255 255 255 255 143 0 0 0 0 0 0 0 0 0 0 
32 255 255 255 255 255 255 255 255 255 255 255 255 255 255 255 
255 255 255 255 255 189 117 121 114 255 255 255 255 255 255 255 
222 76 37 43 43 43 43 43 43 41 36 70 255 255 255 255 
255 255 255 255 255 255 255 255 255 255 255 255 255 255 255 255 219 76 92 92 
92 92 92 92 92 92 92 92 92 92 86 117 255 255 255 255 
255 255 255 255 255 143 0 0 0 0 0 0 0 0 0 0 
0 128 255 255 255 255 255 255 255 255 255 255 255 255 255 255 
255 255 255 255 255 146 119 121 117 189 255 255 255 255 255 255 
255 255 149 35 41 43 43 43 37 76 222 255 255 255 255 255 
255 255 255 255 255 255 255 255 255 255 255 255 255 255 255 255 255 70 92 92 
92 92 92 92 92 92 92 92 92 92 81 174 255 255 255 255 
255 255 255 255 32 0 0 0 0 0 0 0 0 0 0 0 
0 0 223 255 255 255 255 255 255 255 255 255 255 255 213 179 
188 188 192 146 112 119 121 121 121 117 112 146 192 188 188 166 
255 255 255 222 76 35 36 34 149 255 255 255 255 255 255 255 
255 255 255 255 255 255 255 255 255 255 255 255 255 255 255 255 255 122 86 92 
92 92 92 92 92 92 92 92 92 92 76 224 255 255 255 255 
255 255 255 255 0 0 0 0 0 0 0 0 0 0 0 0 
0 0 0 223 255 255 255 255 255 255 255 255 255 255 255 130 
114 117 117 119 121 121 121 121 121 121 121 119 117 117 106 230 
255 255 255 255 255 255 255 255 255 255 255 255 255 255 255 255 
255 255 255 255 255 255 255 255 255 255 255 255 255 255 255 255 255 168 81 92 
92 92 92 92 92 92 92 92 92 92 70 255 255 255 255 255 
255 255 255 255 223 0 0 0 0 0 0 0 0 0 0 0 
0 0 0 0 255 255 255 255 255 255 255 255 255 255 255 255 
138 117 121 121 121 121 121 121 121 121 121 121 121 110 238 255 
255 255 255 255 255 255 255 255 255 255 255 255 255 255 255 255 
255 255 255 255 255 255 255 255 255 255 255 255 255 255 255 255 255 255 71 92 
92 92 92 92 92 92 92 92 92 81 184 255 255 255 255 255 
255 255 255 255 255 255 32 0 0 0 0 0 0 0 0 0 
0 0 0 0 32 255 255 255 255 255 255 255 255 255 255 255 
255 138 117 121 121 121 121 121 121 121 121 121 110 238 255 255 
255 255 255 255 255 255 255 255 255 255 255 255 255 255 255 255 
255 255 255 255 255 255 255 255 255 255 255 255 255 255 255 255 255 255 70 92 
92 92 92 92 92 92 92 92 92 81 163 255 255 255 255 255 
255 255 255 255 255 255 255 127 0 0 0 0 0 0 0 0 
0 0 0 0 0 104 255 255 255 255 255 255 255 255 255 255 
255 255 138 115 121 121 121 121 121 121 121 110 238 255 255 255 
255 255 255 255 255 255 255 255 255 255 255 255 255 255 255 255 
255 255 255 255 255 255 255 255 255 255 255 255 255 255 255 255 255 255 179 81 
92 92 92 92 92 92 92 92 92 70 255 255 255 255 255 255 
255 255 255 255 255 255 255 255 223 0 0 0 0 0 0 0 
0 0 0 0 0 207 255 255 255 255 255 255 255 255 255 255 
255 255 255 197 117 121 121 121 121 121 115 238 255 255 255 255 
255 255 255 255 255 255 255 255 255 255 255 255 255 255 255 255 
255 255 255 255 255 255 255 255 255 255 255 255 255 255 255 255 255 255 224 76 
92 92 92 92 92 92 92 92 86 122 255 255 255 255 255 255 
255 255 255 255 255 255 255 255 255 255 32 0 0 0 0 0 
0 0 0 72 223 255 255 255 255 255 255 255 255 255 255 255 
255 255 255 197 117 121 121 121 121 121 114 255 255 255 255 255 
255 255 255 255 255 255 255 255 255 255 255 255 255 255 255 255 
255 255 255 255 255 255 255 255 255 255 255 255 255 255 255 255 255 255 255 70 
92 92 92 92 92 92 92 92 81 174 255 255 255 255 255 255 
255 255 255 255 255 255 255 255 255 255 255 135 0 0 0 0 
0 0 0 0 223 255 255 255 255 255 255 255 255 255 255 255 
255 255 255 110 121 121 121 121 121 121 117 180 255 255 255 255 
255 255 255 255 255 255 255 255 255 255 255 255 255 255 255 255 
255 255 255 255 255 255 255 255 255 255 255 255 255 255 255 255 255 255 255 112 
70 71 71 71 71 71 71 71 70 224 255 255 255 255 255 255 
255 255 255 255 255 255 255 255 255 255 255 239 0 0 0 0 
0 0 0 0 40 255 255 255 255 255 255 255 255 255 255 255 
255 255 255 114 121 121 119 117 121 121 117 193 255 255 255 255 
255 255 255 255 255 255 255 255 255 255 255 255 255 255 255 255 
255 255 255 255 255 255 255 255 255 255 255 255 255 255 255 255 255 255 255 255 
255 255 255 255 255 255 255 255 255 255 255 255 255 255 255 255 
255 255 255 255 255 255 255 255 255 255 199 0 0 0 0 0 
0 0 0 0 0 128 255 255 255 255 255 255 255 255 255 255 
255 255 230 115 121 117 146 200 112 121 119 146 255 255 255 255 
255 255 255 255 255 255 255 255 255 255 255 255 255 255 255 255 
255 255 255 255 255 255 255 255 255 255 255 255 255 255 255 255 255 255 255 255 
255 255 255 255 255 255 255 255 255 255 255 255 255 255 255 255 
255 255 255 255 255 255 255 255 255 255 199 0 0 0 0 0 
0 0 0 0 0 0 255 255 255 255 255 255 255 255 255 255 
255 255 189 117 117 138 255 255 238 110 121 112 255 255 255 255 
255 255 255 255 255 255 255 255 255 255 255 255 255 255 255 255 
255 255 255 255 255 255 255 255 255 255 255 255 255 255 255 255 255 255 255 255 
255 255 255 255 255 255 255 255 255 255 255 255 255 255 255 255 
255 255 255 255 255 255 255 255 255 255 255 223 0 0 0 0 
0 0 0 0 0 0 32 255 255 255 255 255 255 255 255 255 
255 255 146 115 138 255 255 255 255 238 110 115 230 255 255 255 
255 255 255 255 255 255 255 255 255 255 255 255 255 255 255 255 
255 255 255 255 255 255 255 255 255 255 255 255 255 255 255 255 255 255 255 255 
255 255 255 255 255 255 255 255 255 255 255 255 255 255 255 255 
255 255 255 255 255 255 255 255 255 255 255 255 255 32 0 0 
0 0 0 0 0 0 0 223 255 255 255 255 255 255 255 255 
255 255 108 138 255 255 255 255 255 255 238 106 184 255 255 255 
255 255 255 255 255 255 255 255 255 255 255 255 255 255 255 255 
255 255 255 255 255 255 255 255 255 255 255 255 255 255 255 255 255 255 255 255 
255 255 255 255 255 255 255 255 255 255 255 255 255 255 255 255 
255 255 255 255 255 255 255 255 255 255 255 255 255 255 223 0 
0 0 0 0 0 0 0 0 255 255 255 255 255 255 255 255 
255 217 125 255 255 255 255 255 255 255 255 230 167 255 255 255 
255 255 255 255 255 255 255 255 255 255 255 255 255 255 255 255 
255 255 255 255 255 255 255 255 255 255 255 255 255 255 255 255 255 255 255 255 
255 255 255 255 255 255 255 255 255 255 255 255 255 255 255 255 
255 255 255 255 255 255 255 255 255 255 255 255 255 255 255 215 
40 0 0 0 0 0 0 0 128 255 255 255 255 255 255 255 
255 255 255 255 255 255 255 255 255 255 255 255 255 255 255 255 
255 255 255 255 255 255 255 255 255 255 255 255 255 255 255 255 
255 255 255 255 255 255 255 255 255 255 255 255 255 255 255 255 255 255 255 255 
255 255 255 255 255 255 255 255 255 255 255 255 255 255 255 255 
255 255 255 255 255 255 255 255 255 255 255 255 255 255 255 255 
255 32 0 0 0 0 96 0 0 215 255 255 255 255 255 255 
255 255 255 255 255 255 255 255 255 255 255 255 255 255 255 255 
255 255 255 255 255 255 255 255 255 255 255 255 255 255 255 255 
255 255 255 255 255 255 255 255 255 255 255 255 255 255 255 255 255 255 255 255 
255 255 255 255 255 255 255 255 255 255 255 255 255 255 255 255 
255 255 255 255 255 255 255 255 255 255 255 255 255 255 255 255 
255 255 223 0 0 0 0 0 0 40 255 255 255 255 255 255 
255 255 255 255 255 255 255 255 255 255 255 255 255 255 255 255 
255 255 255 255 255 255 255 255 255 255 255 255 255 255 255 255 
255 255 255 255 255 255 255 255 255 255 255 255 255 255 255 255 255 255 255 255 
255 255 255 255 255 255 255 255 255 255 255 255 255 255 255 255 
255 255 255 255 255 255 255 255 255 255 255 255 255 255 255 255 
255 255 255 215 40 0 0 0 0 0 223 255 255 255 255 255 
255 255 255 255 255 255 255 255 255 255 255 255 255 255 255 255 
255 255 255 255 255 255 255 255 255 255 255 255 255 255 255 255 
255 255 255 255 255 255 255 255 255 255 255 255 255 255 255 255 255 255 255 255 
255 255 255 255 255 255 255 255 255 255 255 255 255 255 255 255 
255 255 255 255 255 255 255 255 255 255 255 255 255 255 255 255 
255 255 255 255 255 32 0 0 0 0 0 255 255 255 255 255 
255 255 255 255 255 255 255 255 255 255 255 255 255 255 255 255 
255 255 255 255 255 255 255 255 255 255 255 255 255 255 255 255 
255 255 255 255 255 255 255 255 255 255 255 255 255 255 255 255 255 255 255 255 
255 241 255 255 255 255 255 255 255 255 255 255 255 255 255 255 
255 255 255 255 255 255 255 255 255 255 255 255 255 255 255 255 
255 255 255 255 255 255 223 0 0 0 0 32 255 255 255 255 
255 255 255 255 255 255 255 255 255 255 255 255 255 255 255 255 
255 255 255 255 255 255 255 255 255 255 255 255 255 255 255 255 
255 255 255 255 255 255 255 255 255 255 255 255 255 255 255 255 255 255 255 255 
255 178 255 255 255 255 255 255 255 255 255 255 255 255 255 255 
255 255 255 255 255 255 255 255 255 255 255 255 255 255 255 255 
255 255 255 255 255 255 255 255 32 0 0 0 207 255 255 255 
255 255 255 255 255 255 255 255 255 255 255 255 255 255 255 255 
255 255 255 255 255 255 255 255 255 255 255 255 255 255 255 255 
255 255 255 255 255 255 255 255 255 255 255 255 255 255 255 255 255 255 255 255 
244 187 244 255 255 255 255 255 255 255 255 255 255 255 255 255 
255 255 255 255 255 255 255 255 255 255 255 255 255 255 255 255 
255 255 255 255 255 255 255 255 255 127 0 0 104 255 255 255 
255 255 255 255 255 255 255 255 255 255 255 255 255 255 255 255 
255 255 255 255 255 255 255 255 255 255 255 255 255 255 255 255 
255 255 255 255 255 255 255 255 255 255 255 255 255 255 255 255 255 255 255 255 
227 191 227 255 255 255 255 255 255 255 255 255 255 255 255 255 
255 255 255 255 255 255 255 255 255 255 255 255 255 255 255 255 
255 255 255 255 255 255 255 255 255 255 207 103 255 255 255 255 
255 255 255 255 255 255 255 255 255 255 255 255 255 255 255 255 
255 255 255 255 255 255 255 255 255 255 255 255 255 255 255 255 
255 255 255 255 255 255 255 255 255 255 255 255 255 255 255 255 255 255 255 255 
209 194 209 255 255 255 255 255 255 255 255 255 255 255 255 255 
255 255 255 255 255 255 255 255 255 255 255 255 255 255 255 255 
255 255 255 255 255 255 255 255 255 255 255 255 255 255 255 255 
255 255 255 255 255 255 255 255 255 255 255 255 255 255 255 255 
255 255 255 255 255 255 255 255 255 255 255 255 255 255 255 255 
255 255 255 255 255 255 255 255 255 255 255 255 255 255 255 255 255 255 255 255 
189 198 189 255 255 255 255 255 255 255 255 255 255 255 255 255 
255 255 255 255 255 255 255 255 255 255 255 255 255 255 255 255 
255 255 255 255 255 255 255 255 255 255 255 255 255 255 255 255 
255 255 255 255 255 255 255 255 255 255 255 255 255 255 255 255 
255 255 255 255 255 255 255 255 255 255 255 255 255 255 255 255 
255 255 255 255 255 255 255 255 255 255 255 255 255 255 255 255 255 255 255 244 
192 198 192 244 255 255 255 255 255 255 255 255 255 255 255 255 
255 255 255 255 255 255 255 255 255 255 255 255 255 255 255 255 
255 255 255 255 255 255 255 255 255 255 255 255 255 255 255 255 
255 255 255 255 255 255 255 255 255 255 255 255 255 255 255 255 
255 255 255 255 255 255 255 255 255 255 255 255 255 255 255 255 
255 255 255 255 255 255 255 255 255 255 255 255 255 255 255 255 255 255 255 227 
194 198 194 228 255 255 255 255 255 255 255 255 255 255 255 255 
255 159 227 255 255 255 255 255 255 255 255 255 255 255 255 255 
255 255 255 255 255 255 255 255 255 255 255 255 255 255 255 255 
255 255 255 255 255 255 255 255 255 255 255 255 255 255 255 255 
255 255 255 255 255 255 255 255 255 255 255 255 255 255 255 255 
255 255 255 255 255 255 255 255 255 255 255 255 255 255 255 255 255 255 255 209 
196 198 198 187 255 255 255 255 255 255 255 255 255 255 255 255 
255 183 78 182 255 255 255 255 255 255 255 255 255 255 255 255 
255 255 255 255 255 255 255 255 255 255 255 255 255 255 255 255 
255 255 255 255 255 255 255 255 255 255 255 255 255 255 255 255 
255 255 255 255 255 255 255 255 255 255 255 255 255 255 255 255 
255 255 255 255 255 255 255 255 255 255 255 255 255 255 255 255 255 255 255 189 
198 198 198 191 255 255 255 255 255 255 255 255 255 255 255 255 
255 183 100 96 127 255 255 255 255 255 255 255 255 255 255 255 
255 255 255 255 255 255 255 255 255 255 255 255 255 255 255 255 
255 255 255 255 255 255 255 255 255 255 255 255 255 255 255 255 
255 255 255 255 255 255 255 255 255 255 255 255 255 255 255 255 
255 255 255 255 255 255 255 255 255 255 255 255 255 255 255 255 255 255 223 194 
198 198 198 194 223 255 255 255 255 255 255 255 255 255 255 255 
255 183 100 110 100 127 255 255 255 255 255 255 255 255 255 255 
255 255 255 255 255 255 255 255 255 255 255 255 255 255 255 255 
255 255 255 255 255 255 255 255 255 244 255 255 255 255 255 255 
255 255 255 255 255 255 255 255 255 255 255 255 255 255 255 255 
255 255 255 255 255 255 255 255 255 255 255 255 255 255 255 255 255 255 230 194 
198 198 198 194 230 255 255 255 255 255 255 255 255 255 255 255 
255 183 100 110 110 100 127 255 255 255 255 255 255 255 255 255 
255 255 255 255 255 255 255 255 255 255 255 255 255 255 255 255 
255 255 255 255 255 255 255 255 255 235 234 255 255 255 255 255 
255 255 255 255 255 255 255 255 255 255 255 255 255 255 255 255 
255 255 255 255 255 255 255 255 255 255 255 255 255 255 255 255 225 209 192 198 
198 198 198 198 192 209 225 255 255 255 255 255 255 255 255 255 
255 183 100 110 110 110 105 78 237 255 255 255 255 255 255 255 
255 255 255 255 255 255 255 255 255 255 255 255 255 255 255 255 
255 255 255 255 255 255 255 255 255 225 225 255 255 255 255 255 
255 255 255 255 255 255 255 255 255 255 255 255 255 255 255 255 
255 255 255 255 255 255 255 255 255 255 255 255 255 244 228 187 194 196 198 198 
198 198 198 198 198 196 194 187 228 244 255 255 255 255 255 255 
255 183 100 110 110 110 110 110 82 237 255 255 255 255 255 255 
255 255 255 255 255 255 255 255 255 255 255 255 255 255 255 255 
255 255 255 255 255 255 255 255 255 218 218 255 255 255 255 255 
255 255 255 255 255 255 255 255 255 255 255 255 255 255 255 255 
255 255 255 255 255 255 255 255 255 255 255 226 187 192 194 198 198 198 198 198 
198 198 198 198 198 198 198 198 194 192 187 226 255 255 255 255 
255 183 100 110 110 110 110 110 110 82 237 255 255 255 255 255 
255 255 255 255 255 255 255 255 255 255 255 255 255 255 255 255 
255 255 255 255 255 255 255 255 236 219 219 236 255 255 255 255 
255 255 255 255 255 255 255 255 255 255 255 255 255 255 255 255 
255 255 255 255 255 255 255 255 239 201 185 194 198 198 198 198 198 198 198 198 
198 198 198 198 198 198 198 198 198 198 198 194 185 201 239 255 
255 183 100 110 110 110 110 110 110 110 87 182 255 255 255 255 
255 255 255 255 255 255 255 255 255 255 255 255 255 255 255 255 
255 255 255 255 255 255 255 255 226 219 219 226 255 255 255 255 
255 255 255 255 255 255 255 255 255 255 255 255 255 255 255 255 
255 255 255 255 255 255 255 255 255 242 228 187 194 196 198 198 198 198 198 198 
198 198 198 198 198 198 198 198 198 196 194 187 228 242 255 255 
255 183 100 110 110 110 110 110 110 110 110 96 127 255 255 255 
255 255 255 255 255 255 255 255 255 255 255 255 255 255 255 255 
255 255 255 255 255 255 255 255 218 219 219 218 255 255 255 255 
255 255 255 255 255 255 255 255 255 255 255 255 255 255 255 255 
255 255 255 255 255 255 255 255 255 255 255 255 225 209 189 194 198 198 198 198 
198 198 198 198 198 198 198 194 189 209 225 255 255 255 255 255 
255 183 100 110 110 110 110 110 110 110 110 110 100 127 255 255 
255 255 255 255 255 255 255 255 255 255 255 255 255 255 255 255 
255 255 255 255 255 255 255 248 218 219 219 218 248 255 255 255 
255 255 255 255 255 255 255 255 255 255 255 255 255 255 255 255 
255 255 255 255 255 255 255 255 255 255 255 255 255 255 255 226 187 192 196 198 
198 198 198 198 196 192 187 226 255 255 255 255 255 255 255 255 
255 183 100 110 110 110 110 110 110 110 110 110 110 100 127 255 
255 255 255 255 255 255 255 255 255 255 255 255 255 255 255 255 
255 255 255 255 255 255 255 238 219 219 219 219 238 255 255 255 
255 255 255 255 255 255 255 255 255 255 255 255 255 255 255 255 
255 255 255 255 255 255 255 255 255 255 255 255 255 255 255 255 255 246 211 196 
198 198 198 196 211 246 255 255 255 255 255 255 255 255 255 255 
255 183 100 110 110 110 110 110 110 110 110 110 110 110 105 78 
237 255 255 255 255 255 255 255 255 255 255 255 255 255 255 255 
255 255 255 255 255 255 255 218 219 219 219 219 218 255 255 255 
255 255 255 255 255 255 255 255 255 255 255 255 255 255 255 255 
255 255 255 255 255 255 255 255 255 255 255 255 255 255 255 255 255 255 227 194 
198 198 198 194 227 255 255 255 255 255 255 255 255 255 255 255 
255 178 92 100 100 100 100 100 100 100 100 100 100 100 100 100 
73 227 255 255 255 255 255 255 255 255 255 255 255 255 255 255 
255 255 255 255 255 255 248 218 219 219 219 219 218 248 255 255 
255 255 255 255 255 255 255 255 255 255 255 255 255 255 255 255 
255 255 255 255 255 255 255 255 255 255 255 255 255 255 255 255 255 255 244 192 
198 198 198 192 244 255 255 255 255 255 255 255 255 255 255 255 
255 218 178 182 182 182 182 182 182 182 182 182 182 182 182 182 
182 159 255 255 255 255 255 255 255 255 255 255 255 255 255 255 
255 255 255 255 255 255 238 219 219 219 219 219 219 238 255 255 
255 255 255 255 255 255 255 255 255 255 255 255 255 255 255 255 
255 255 255 255 255 255 255 255 255 255 255 255 255 255 255 255 255 255 255 189 
198 198 198 187 255 255 255 255 255 255 255 255 255 255 255 255 
255 255 255 255 255 255 255 255 255 255 255 255 255 255 255 255 
255 255 255 255 255 255 255 255 255 255 255 255 255 255 255 255 
255 255 255 255 255 255 218 219 219 219 219 219 219 218 255 255 
255 255 255 255 255 255 255 255 255 255 255 255 255 255 255 255 
255 255 255 255 255 255 255 255 255 255 255 255 255 255 255 255 255 255 255 209 
196 198 194 230 255 255 255 255 255 255 255 255 255 255 255 255 
255 255 255 255 255 255 255 255 255 255 255 255 255 255 255 255 
255 255 255 255 255 255 255 255 255 255 255 255 255 255 255 255 
255 255 255 255 255 255 218 219 219 219 219 219 219 218 255 255 
255 255 255 255 255 255 255 255 255 255 255 255 255 255 255 255 
255 255 255 255 255 255 255 255 255 255 255 255 255 255 255 255 255 255 255 225 
194 198 194 223 255 255 255 255 255 255 255 255 255 255 255 255 
255 255 255 255 255 255 255 255 255 255 255 255 255 255 255 255 
255 255 255 255 255 255 255 255 255 255 255 255 255 255 255 255 
255 255 255 255 255 236 219 219 219 219 219 219 219 219 236 255 
255 255 255 255 255 255 255 255 255 255 255 255 255 255 255 255 
255 255 255 255 255 255 255 255 255 255 255 255 255 255 255 255 255 255 255 255 
191 198 191 255 255 255 255 255 255 255 255 255 255 255 255 255 
255 255 255 255 255 255 255 255 255 255 255 255 255 255 255 255 
255 255 255 255 255 255 255 255 255 255 255 255 255 255 255 255 
255 255 255 255 255 226 219 219 219 219 219 219 219 219 226 255 
255 255 255 255 255 255 255 255 255 255 255 255 255 255 255 255 
255 255 255 255 255 255 255 255 255 255 255 255 255 255 255 255 255 255 255 255 
187 198 187 255 255 255 255 255 255 255 255 255 255 255 255 255 
255 255 255 255 255 255 255 255 255 255 255 255 255 255 255 255 
255 255 255 255 255 255 255 255 255 255 255 255 255 255 255 255 
255 255 255 255 255 218 219 219 219 219 219 219 219 219 218 255 
255 255 255 255 255 255 255 255 255 255 255 255 255 255 255 255 
255 255 255 255 255 255 255 255 255 255 255 255 255 255 255 255 255 255 255 255 
230 191 230 255 255 255 255 255 255 255 255 255 255 255 255 255 
255 255 255 255 255 255 255 255 255 255 255 255 255 255 255 255 
255 255 255 255 255 255 255 255 255 255 255 255 255 255 255 255 
255 255 255 255 235 219 219 219 219 219 219 219 219 219 219 235 
255 255 255 255 255 255 255 255 255 255 255 255 255 255 255 255 
255 255 255 255 255 255 255 255 255 255 255 255 255 255 255 255 255 255 255 255 
223 191 223 255 255 255 255 255 255 255 255 255 255 255 255 255 
255 255 255 255 255 255 255 255 255 255 255 255 255 255 255 255 
255 255 255 255 255 255 255 255 255 255 255 255 255 255 255 255 
255 255 255 255 240 219 219 219 219 219 219 219 219 219 219 240 
255 255 255 255 255 255 255 255 255 255 255 255 255 255 255 255 
255 255 255 255 255 255 255 255 255 255 255 255 255 255 255 255 255 255 255 255 
255 182 255 255 255 255 255 255 255 255 255 255 255 255 255 255 
255 255 255 255 255 255 255 255 255 255 255 255 255 255 255 255 
255 255 255 255 255 255 255 255 255 255 255 255 255 255 255 255 
255 255 255 255 218 219 219 219 219 219 219 219 219 219 219 218 
255 255 255 255 255 255 255 255 255 255 255 255 255 255 255 255 
255 255 255 255 255 255 255 255 255 255 255 255 255 255 255 255 255 255 255 255 
255 198 255 255 255 255 255 255 255 255 255 255 255 255 255 255 
255 255 255 255 255 255 255 255 255 255 255 255 255 255 255 255 
255 255 255 255 255 255 255 255 255 255 255 255 255 255 255 255 
255 255 255 247 218 219 219 219 219 219 219 219 219 219 219 218 
247 255 255 255 255 255 255 255 255 255 255 255 255 255 255 255 
255 255 255 255 255 255 255 255 255 255 255 255 255 255 255 255 255 255 255 255 
255 255 255 255 255 255 255 255 255 255 255 255 255 255 255 255 
255 255 255 255 255 255 255 255 255 255 255 255 255 255 255 255 
255 255 255 255 255 255 255 255 255 255 255 255 255 255 255 255 
255 255 255 245 236 237 237 237 237 237 237 237 237 237 237 236 
245 255 255 255 255 255 255 255 255 255 255 255 255 255 255 255 
255 255 255 255 255 255 255 255 255 255 255 255 255 255 255 255 255 255 255 255 
255 255 255 255 255 255 255 255 239 255 255 255 255 255 255 255 
255 255 255 255 255 255 255 255 255 255 255 255 255 255 255 255 
255 255 255 255 255 255 255 255 255 255 255 255 255 255 255 255 
255 255 255 255 255 255 255 255 255 255 255 255 255 255 255 255 
255 255 255 255 255 255 255 255 255 255 255 255 255 255 255 255 
255 255 255 255 255 255 255 255 255 255 255 255 255 255 255 255 255 255 255 255 
255 255 255 255 255 255 245 203 183 224 255 255 255 255 255 255 
255 255 255 255 255 255 255 255 255 255 255 255 255 255 255 255 
255 255 255 255 255 255 255 255 255 255 255 255 255 255 255 255 
255 255 255 255 255 255 255 255 255 255 255 255 255 255 255 255 
255 255 255 255 255 255 255 255 255 255 255 255 255 255 255 255 
255 255 255 255 255 255 255 255 255 255 255 255 255 255 255 255 255 255 255 255 
255 255 255 255 255 247 183 191 193 187 201 255 255 255 255 255 
255 255 255 255 255 255 255 255 255 255 255 255 255 255 255 255 
255 255 255 255 255 255 255 255 255 255 255 255 255 255 255 255 
255 255 255 255 221 255 255 255 255 255 255 255 255 255 255 255 
255 255 255 255 255 255 255 255 255 255 255 255 255 255 255 255 
255 255 255 255 255 255 255 255 255 255 255 255 255 255 255 255 255 255 255 255 
255 255 255 255 201 185 193 193 193 193 191 181 247 255 255 255 
255 255 255 255 255 255 255 255 255 255 255 255 255 255 255 255 
255 255 255 255 255 255 255 255 255 255 255 255 255 255 255 255 
255 255 255 255 191 193 211 226 255 255 255 255 255 255 255 255 
255 255 255 255 255 255 255 255 255 255 255 255 255 255 255 255 
255 255 255 255 255 255 255 255 255 255 255 255 255 255 255 255 255 255 255 255 
255 255 245 203 189 193 193 193 193 193 193 193 184 224 255 255 
255 255 255 255 255 255 255 255 255 255 255 255 255 255 255 255 
255 255 255 255 255 255 255 255 255 255 255 255 255 255 255 255 
255 255 255 255 194 201 199 197 193 211 226 255 255 255 255 255 
255 255 255 255 255 255 255 255 255 255 255 255 255 255 255 255 
255 255 255 255 255 255 255 255 255 255 255 255 255 255 255 255 255 255 255 255 
255 247 183 191 193 193 193 193 193 193 193 193 193 187 201 255 
255 255 255 255 255 255 255 255 255 255 255 255 255 255 255 255 
255 255 255 255 255 255 255 255 255 255 255 255 255 255 255 255 
255 255 255 255 194 201 201 201 201 199 197 193 211 226 255 255 
255 255 255 255 255 255 255 255 255 255 255 255 255 255 255 255 
255 255 255 255 255 255 255 255 255 255 255 255 255 255 255 255 255 255 255 255 
201 185 193 193 193 193 193 193 193 193 193 193 193 193 191 181 
247 255 255 255 255 255 255 255 255 255 255 255 255 255 224 228 
228 228 228 228 228 228 228 228 228 228 228 228 228 228 228 228 
228 228 228 231 197 201 201 201 201 201 201 201 199 197 193 210 
246 255 255 255 255 255 255 255 255 255 255 255 255 255 255 255 
255 255 255 255 255 255 255 255 255 255 255 255 255 255 255 255 255 255 245 203 
189 193 193 193 193 193 193 193 193 193 193 193 193 193 193 193 
184 224 255 255 255 255 255 255 255 255 255 255 255 255 191 197 
197 197 197 197 197 197 197 197 197 197 197 197 197 197 197 197 
197 197 197 197 201 201 201 201 201 201 201 201 201 201 201 199 
196 191 230 245 255 255 255 255 255 255 255 255 255 255 255 255 
255 255 255 255 255 255 255 255 255 255 255 255 255 255 255 255 255 239 181 191 
193 193 193 193 193 193 193 193 193 193 193 193 193 193 193 193 
193 187 195 255 255 255 255 255 255 255 255 255 255 255 194 201 
201 201 201 201 201 201 201 201 201 201 201 201 201 201 201 201 
201 201 201 201 201 201 201 201 201 201 201 201 201 201 201 201 
201 201 197 196 191 230 245 255 255 255 255 255 255 255 255 255 
255 255 255 255 255 255 255 255 255 255 255 255 255 255 255 255 255 255 201 185 
193 193 193 193 193 193 193 193 193 193 193 193 193 193 193 193 
191 181 245 255 255 255 255 255 255 255 255 255 255 255 194 201 
201 201 201 201 201 201 201 201 201 201 201 201 201 201 201 201 
201 201 201 201 201 201 201 201 201 201 201 201 201 201 201 201 
201 201 201 201 201 197 196 191 230 245 255 255 255 255 255 255 
255 255 255 255 255 255 255 255 255 255 255 255 255 255 255 255 255 255 255 247 
183 191 193 193 193 193 193 193 193 193 193 193 193 193 193 187 
201 255 255 255 255 255 255 255 255 255 255 255 255 255 194 201 
201 201 201 201 201 201 201 201 201 201 201 201 201 201 201 201 
201 201 201 201 201 201 201 201 201 201 201 201 201 201 201 201 
201 201 201 201 201 201 201 201 194 187 201 255 255 255 255 255 
255 255 255 255 255 255 255 255 255 255 255 255 255 255 255 255 255 255 255 255 
245 203 189 193 193 193 193 193 193 193 193 193 193 193 184 224 
255 255 255 255 255 255 255 255 255 255 255 255 255 255 194 201 
201 201 201 201 201 201 201 201 201 201 201 201 201 201 201 201 
201 201 201 201 201 201 201 201 201 201 201 201 201 201 201 201 
201 201 201 201 201 197 196 191 228 255 255 255 255 255 255 255 
255 255 255 255 255 255 255 255 255 255 255 255 255 255 255 255 255 255 255 255 
255 255 201 185 193 193 193 193 193 193 193 193 191 181 247 255 
255 255 255 255 255 255 255 255 255 255 255 255 255 255 194 201 
201 201 201 201 201 201 201 201 201 201 201 201 201 201 201 201 
201 201 201 201 201 201 201 201 201 201 201 201 201 201 201 201 
201 201 197 196 191 230 245 255 255 255 255 255 255 255 255 255 
255 255 255 255 255 255 255 255 255 255 255 255 255 255 255 255 255 255 255 255 
255 255 255 247 183 191 193 193 193 193 193 187 201 255 255 255 
255 255 255 255 255 255 255 255 255 255 255 255 255 255 191 197 
197 197 197 197 197 197 197 197 197 197 197 197 197 197 197 197 
197 197 197 197 201 201 201 201 201 201 201 201 201 201 201 197 
196 191 230 245 255 255 255 255 255 255 255 255 255 255 255 255 
255 255 255 255 255 255 255 255 255 255 255 255 255 255 255 255 255 255 255 255 
255 255 255 255 245 203 189 193 193 193 184 224 255 255 255 255 
255 255 255 255 255 255 255 255 255 255 255 255 255 255 224 228 
228 228 228 228 228 228 228 228 228 228 228 228 228 228 228 228 
228 228 228 231 197 201 201 201 201 201 201 201 199 197 191 230 
245 255 255 255 255 255 255 255 255 255 255 255 255 255 255 255 
255 255 255 255 255 255 255 255 255 255 255 255 255 255 255 255 255 255 255 255 
255 255 255 255 255 255 201 185 191 181 247 255 255 255 255 255 
255 255 255 255 255 255 255 255 255 255 255 255 255 255 255 255 
255 255 255 255 255 255 255 255 255 255 255 255 255 255 255 255 
255 255 255 255 194 201 201 201 201 199 197 193 211 226 255 255 
255 255 255 255 255 255 255 255 255 255 255 255 255 255 255 255 
255 255 255 255 255 255 255 255 255 255 255 255 255 255 255 255 255 255 255 255 
255 255 255 255 255 255 255 245 195 255 255 255 255 255 255 255 
255 255 255 255 255 255 255 255 255 255 255 255 255 255 255 255 
255 255 255 255 255 255 255 255 255 255 255 255 255 255 255 255 
255 255 255 255 194 201 199 197 193 211 226 255 255 255 255 255 
255 255 255 255 255 255 255 255 255 255 255 255 255 255 255 255 
255 255 255 255 255 255 255 255 255 255 255 255 255 255 255 255 255 255 255 255 
255 255 255 255 255 255 255 255 255 255 255 255 255 255 255 255 
255 255 255 255 255 255 255 255 255 255 255 255 255 255 255 255 
255 255 255 255 255 255 255 255 255 255 255 255 255 255 255 255 
255 255 255 255 191 193 211 226 255 255 255 255 255 255 255 255 
255 255 255 255 255 255 255 255 255 255 255 255 255 255 255 255 
255 255 255 255 255 255 255 255 255 255 255 255 255 255 255 255 255 255 255 255 
255 255 255 255 255 255 255 255 255 255 255 255 255 255 255 255 
255 255 255 255 255 255 255 255 255 255 255 255 255 255 255 255 
255 255 255 255 255 255 255 255 255 255 255 255 255 255 255 255 
255 255 255 255 221 255 255 255 255 255 255 255 255 255 255 255 
255 255 255 255 255 255 255 255 255 255 255 255 255 255 255 255 
255 255 255 255 255 255 255 255 255 255 255 255 255 255 255 255 255 255 255 255 
255 255 255 255 255 255 255 255 255 255 255 255 255 255 255 255 
255 255 255 255 255 255 255 255 255 255 255 255 255 255 255 255 
255 255 255 255 255 255 255 255 255 255 255 255 255 255 255 255 
255 255 255 255 255 255 255 255 255 255 255 255 255 255 255 255 
255 255 255 255 255 255 255 255 255 255 255 255 255 255 255 255 
255 255 255 255 255 255 255 255 255 255 255 255 255 255 255 255 255 255 255 255 
255 255 255 255 255 255 255 255 255 255 255 255 255 255 255 255 
255 255 255 255 255 255 255 255 255 255 255 255 255 255 255 255 
255 255 255 255 255 255 255 255 255 255 255 255 255 255 255 255 
255 255 255 255 255 255 255 255 255 255 255 255 255 255 255 255 
255 255 255 255 255 255 255 255 255 255 255 255 255 255 255 255 
255 255 255 255 255 255 255 255 255 255 255 255 255 255 255 255 255 255 255 255 
255 255 255 255 255 255 255 255 255 255 255 255 255 255 255 255 
255 255 255 255 255 255 255 255 255 255 255 255 255 255 255 255 
255 255 255 255 255 255 255 255 255 255 255 255 255 255 255 255 
255 255 255 255 255 255 255 255 255 255 255 255 255 255 255 255 
255 255 255 255 255 255 255 255 255 255 255 255 255 255 255 255 
255 255 255 255 255 255 255 255 255 255 255 255 255 255 255 255 255 255 255 255 
255 255 255 255 255 255 255 255 255 255 255 255 255 255 255 255 
255 255 255 255 255 255 255 255 255 255 255 255 255 255 255 255 
255 255 255 255 255 255 255 255 255 255 255 255 255 255 255 255 
255 255 255 255 255 255 255 255 255 255 255 255 255 255 255 255 
255 255 255 255 255 255 255 255 255 255 255 255 255 255 255 255 
255 255 255 255 255 255 255 255 255 255 255 255 255 255 255 255 255 255 255 255 
255 255 255 255 255 255 255 255 255 255 255 255 255 255 255 255 
255 255 255 255 255 255 255 255 255 255 255 255 255 255 255 255 
255 255 255 255 255 255 255 255 255 255 255 255 255 255 255 255 
255 255 255 255 255 255 255 255 255 255 255 255 255 255 255 255 
255 255 255 255 255 255 255 255 255 255 255 255 255 255 255 255 
255 255 255 255 255 255 255 255 255 255 255 255 255 255 255 255 255 255 255 255 
255 255 255 255 255 255 255 255 255 255 255 255 255 255 255 255 
255 255 255 255 255 255 255 255 255 255 255 255 255 255 255 255 
255 255 255 255 255 255 255 255 255 255 255 255 255 255 255 255 
255 255 255 255 255 255 255 255 255 255 255 255 255 255 255 255 
255 255 255 255 255 255 255 255 255 255 255 255 255 255 255 255 
255 255 255 255 255 255 255 255 255 255 255 255 255 255 255 255 255 255 255 255 
255 255 255 255 255 255 255 255 255 255 255 255 255 255 255 255 
255 255 255 255 255 255 255 255 255 255 255 255 255 255 255 255 
255 255 255 255 255 255 255 255 255 255 255 255 255 255 255 255 
255 255 255 255 255 255 255 255 255 255 255 255 255 255 255 255 
255 255 255 255 255 255 255 255 255 255 255 255 255 255 255 255 
255 255 255 
