P2
# CREATOR: GIMP PNM Filter Version 1.1
50 50
255
255
255
255
255
255
255
255
255
255
255
255
255
255
255
255
255
255
255
255
255
255
255
255
255
255
255
255
255
255
255
255
255
255
255
255
255
255
255
255
255
255
255
255
255
255
255
255
255
255
255
255
255
239
255
255
255
255
255
255
255
255
255
255
255
255
255
255
255
255
255
255
255
255
255
255
255
255
255
255
255
255
255
255
255
255
255
255
255
254
255
255
255
255
255
255
255
255
255
254
255
255
255
87
161
249
255
254
255
255
255
255
255
255
255
255
255
255
255
255
255
254
255
255
255
255
255
255
255
255
255
255
255
255
255
255
255
255
254
238
82
24
21
112
255
144
31
25
50
213
255
255
255
105
124
104
158
228
255
254
255
255
255
255
255
255
255
255
255
254
255
164
78
255
255
255
255
255
255
255
255
255
255
255
255
255
255
255
255
71
44
42
42
44
43
40
43
43
43
20
243
255
255
105
123
122
124
111
147
199
255
254
255
255
255
255
255
255
255
211
54
0
0
163
254
255
255
255
255
255
255
255
255
255
255
255
255
255
201
35
43
43
43
43
43
42
43
43
43
44
140
255
255
96
114
114
114
114
114
111
112
192
255
255
255
255
254
255
131
0
0
0
0
16
255
255
255
255
255
255
255
255
255
255
255
255
255
255
209
34
43
43
43
43
43
43
43
43
43
43
145
255
255
222
226
226
226
226
226
226
226
223
228
255
255
255
194
15
0
0
0
0
0
0
127
255
255
255
255
255
255
255
255
255
255
255
255
255
224
30
42
43
43
43
43
43
43
43
43
41
155
255
255
255
255
255
255
255
255
255
255
252
255
255
255
255
0
0
0
0
0
0
0
0
0
239
255
255
255
255
255
255
255
255
255
255
255
233
255
85
43
43
43
43
43
43
43
43
42
22
240
255
255
255
255
255
255
255
255
255
204
75
149
255
254
254
255
47
0
0
0
0
0
0
0
82
255
255
255
255
255
255
255
255
255
255
239
174
254
211
26
42
43
43
43
43
43
42
41
147
255
255
255
255
255
255
255
255
255
168
77
92
88
113
255
254
254
255
157
0
0
0
0
0
0
164
255
255
255
255
255
255
255
255
255
254
192
147
255
255
197
28
43
43
43
43
42
40
97
255
255
255
255
255
255
255
255
250
121
88
91
92
91
94
107
219
255
255
255
213
31
0
0
0
0
69
255
255
255
255
255
255
255
255
255
255
160
104
255
255
255
194
34
43
42
43
32
98
255
255
255
255
255
255
255
255
255
255
71
91
92
92
92
92
84
202
255
255
255
204
31
0
0
0
0
0
157
255
255
255
255
255
243
222
228
194
121
118
166
216
227
229
243
82
24
50
212
255
255
255
255
255
255
255
255
255
255
255
105
92
92
92
92
91
68
255
255
255
255
188
0
0
0
0
0
0
0
197
254
255
255
255
255
147
112
120
121
120
121
117
127
255
254
255
255
255
254
255
255
255
255
255
255
255
255
255
255
254
160
94
92
92
92
92
122
255
255
255
255
255
214
14
0
0
0
0
0
0
224
255
255
255
255
255
155
116
120
121
122
133
255
254
255
255
255
255
255
255
255
255
255
255
255
255
255
255
255
255
238
77
92
92
92
90
176
254
255
255
255
255
254
255
57
0
0
0
0
70
254
255
255
255
255
255
255
158
121
121
108
255
254
255
255
255
255
255
255
255
255
255
255
255
255
255
255
255
255
255
255
64
70
70
70
58
236
255
255
255
255
255
255
255
255
101
0
0
0
56
255
255
255
255
255
255
255
104
120
117
114
224
255
255
255
255
255
255
255
255
255
255
255
255
255
255
255
255
255
255
254
255
255
255
255
255
255
255
255
255
255
255
255
255
237
0
0
0
0
0
167
254
255
255
255
255
238
110
159
209
109
191
254
255
255
255
255
255
255
255
255
255
255
255
255
255
255
255
255
255
255
255
255
255
255
255
255
255
255
255
255
255
255
255
255
197
0
0
0
0
0
255
255
255
255
254
190
154
255
255
217
147
255
255
255
255
255
255
255
255
255
255
255
255
255
255
255
255
255
255
255
255
255
255
255
255
255
255
255
255
255
255
255
255
255
254
255
47
0
0
0
88
255
255
255
255
206
255
255
255
255
226
255
255
255
255
255
255
255
255
255
255
255
255
255
255
255
255
255
255
255
255
255
255
255
255
255
255
255
255
255
255
255
255
255
255
254
255
127
0
30
0
200
254
255
255
255
255
255
255
255
255
255
255
255
255
255
255
255
255
255
255
255
255
255
255
255
255
255
255
255
254
255
255
255
255
255
255
255
255
255
255
255
255
255
255
255
255
255
207
0
1
43
255
255
255
255
255
255
255
255
255
255
255
255
255
255
255
255
255
255
255
255
255
255
255
255
255
255
255
255
255
228
254
255
255
255
255
255
255
255
255
255
255
255
255
255
255
255
254
255
57
0
118
255
255
255
255
255
255
255
255
255
255
255
255
255
255
255
255
255
255
255
255
255
255
255
255
255
255
255
248
208
255
255
255
255
255
255
255
255
255
255
255
255
255
255
255
255
255
255
255
149
98
255
255
255
255
255
255
255
255
255
255
255
255
255
255
255
255
255
255
255
255
255
255
255
255
255
255
254
226
193
255
255
255
255
255
255
255
255
255
255
255
255
255
255
255
255
255
255
255
255
255
255
255
255
255
255
255
255
255
255
255
255
255
255
255
255
255
255
255
255
255
255
255
255
255
255
255
255
213
192
249
255
255
255
255
255
255
224
255
255
255
255
255
255
255
255
255
255
255
255
255
255
255
255
255
255
255
255
255
255
255
255
255
255
255
255
255
255
255
255
255
255
255
255
255
255
255
255
193
198
221
254
255
255
255
255
255
124
162
255
255
255
255
255
255
255
255
255
255
255
255
255
255
255
255
255
254
255
255
255
255
255
255
255
255
255
255
255
255
255
255
255
255
255
255
255
255
244
193
198
208
255
254
255
255
255
255
136
107
144
255
254
255
255
255
255
255
255
255
255
255
255
255
255
255
255
255
240
255
255
255
255
255
255
255
255
255
255
255
255
255
255
255
254
255
249
212
195
198
197
195
203
232
255
255
255
255
136
110
109
112
255
254
255
255
255
255
255
255
255
255
255
255
255
255
255
255
216
255
255
255
255
255
255
255
255
255
255
255
255
255
255
251
220
197
192
198
198
198
198
197
198
196
188
213
235
255
136
110
110
112
117
247
254
255
255
255
255
255
255
255
255
255
255
255
255
243
217
243
255
255
255
255
255
255
255
255
255
255
255
255
255
255
248
212
193
196
198
197
198
198
198
190
203
232
254
255
136
110
110
110
111
94
233
254
255
255
255
255
255
255
255
255
255
255
255
234
219
234
255
255
255
255
255
255
255
255
255
255
255
255
255
255
255
255
255
230
210
197
198
198
218
252
255
254
255
255
136
111
110
110
110
111
102
214
255
255
255
255
255
255
255
255
255
255
255
221
218
221
255
255
255
255
255
255
255
255
255
255
255
255
255
255
255
255
255
254
248
192
198
212
255
255
255
255
255
255
158
136
135
135
135
135
135
120
224
255
255
255
255
255
255
255
255
255
250
217
219
217
250
255
255
255
255
255
255
255
255
255
255
255
255
255
255
255
255
255
255
193
196
232
254
255
255
255
255
254
255
255
255
255
255
255
255
255
255
255
255
255
255
255
255
255
255
254
236
219
219
219
236
254
255
255
255
255
255
255
255
255
255
255
255
255
255
255
255
255
255
215
192
249
255
255
255
255
255
255
255
255
255
255
255
255
255
255
255
255
255
255
255
255
255
255
255
255
223
218
219
218
223
255
255
255
255
255
255
255
255
255
255
255
255
255
255
255
255
255
255
232
197
255
255
255
255
255
255
255
255
255
255
255
255
255
255
255
255
255
255
255
255
255
255
255
255
251
216
219
219
219
216
251
255
255
255
255
255
255
255
255
255
255
255
255
255
255
255
255
255
250
207
255
255
255
255
255
255
255
255
255
255
255
255
255
255
255
255
255
255
255
255
255
255
255
254
243
218
219
219
219
218
243
254
255
255
255
255
255
255
255
255
255
255
255
255
255
255
255
255
255
239
255
255
255
254
255
255
255
255
255
255
255
255
255
255
255
255
255
255
255
255
255
255
255
255
234
226
226
226
226
226
234
255
255
255
255
255
255
255
255
255
255
255
255
255
255
255
255
255
255
255
254
255
216
252
254
255
255
255
255
255
255
255
255
255
255
255
255
255
255
255
255
255
255
254
255
255
255
255
255
255
255
254
255
255
255
255
255
255
255
255
255
255
255
255
255
255
255
255
255
255
244
198
193
188
237
255
255
255
255
255
255
255
255
255
255
255
255
255
255
255
255
255
255
255
228
229
251
255
254
255
255
255
255
255
255
255
255
255
255
255
255
255
255
255
255
255
255
255
255
234
190
193
193
193
188
215
255
254
255
255
255
255
255
255
255
255
255
255
255
255
255
255
255
255
224
200
194
205
228
251
255
254
255
255
255
255
255
255
255
255
255
255
255
255
255
255
254
255
209
189
193
193
193
193
192
192
196
252
254
255
255
255
255
229
210
210
210
210
210
210
210
210
210
210
205
201
200
201
200
194
211
233
255
255
254
255
255
255
255
255
255
255
255
255
255
255
255
214
188
193
193
193
193
193
193
192
193
192
255
255
255
255
255
224
201
201
201
201
201
201
201
201
201
201
201
201
201
201
201
200
201
199
192
216
233
255
254
255
255
255
255
255
255
255
255
255
255
255
234
190
193
193
193
193
193
188
215
255
254
255
255
255
255
224
201
201
201
201
201
201
201
201
201
201
201
201
201
201
201
201
201
201
201
196
199
219
255
255
255
255
255
255
255
255
255
255
255
255
255
244
198
192
192
193
188
237
255
255
255
255
255
255
255
222
197
197
197
197
197
197
197
197
197
197
199
200
201
201
201
201
196
201
220
249
255
254
255
255
255
255
255
255
255
255
255
255
255
255
255
254
255
209
188
196
252
254
255
255
255
255
255
255
255
248
243
243
243
243
243
243
243
243
243
243
219
201
201
198
196
214
249
255
255
255
255
255
255
255
255
255
255
255
255
255
255
255
255
255
255
255
255
255
237
255
254
255
255
255
255
255
255
255
255
255
255
255
255
255
255
255
255
255
255
255
222
197
216
237
255
255
255
255
255
255
255
255
255
255
255
255
255
255
255
255
255
255
255
255
255
255
255
255
255
255
255
255
255
255
255
255
255
255
255
255
255
255
255
255
255
255
255
255
255
255
246
255
255
255
255
255
255
255
255
255
255
255
255
255
255
255
255
255
255
255
255
255
255
255
255
255
255
255
255
255
255
255
255
255
255
255
255
255
255
255
255
255
255
255
255
255
255
255
255
255
255
255
255
255
255
255
255
255
255
255
255
255
255
255
255
255
255
255
255
255
255
255
255
255
255
255
255
255
255
255
255
255
255
255
255
255
255
255
255
255
255
255
255
255
255
255
255
255
255
255
255
255
255
255
255
255
255
255
255
255
255
255
255
255
255
255
255
255
255
255
255
255
255
255
255
255
255
255
255
255
255
255
255
255
255
255
255
255
255
255
255
255
255
255
255
255
255
255
255
255
255
255
255
255
255
255
255
255
255
255
255
255
255
255
255
255
