P2
# CREATOR: GIMP PNM Filter Version 1.1
50 37
255
128
132
169
194
203
213
201
204
215
214
208
208
187
159
145
131
119
117
121
126
128
130
136
145
152
166
174
175
169
163
154
143
137
140
139
126
132
144
159
173
205
234
227
215
201
195
158
77
131
193
155
173
190
195
203
211
192
194
214
219
209
208
187
159
141
132
123
117
117
118
120
124
131
140
150
165
172
171
168
163
151
143
137
136
130
129
138
145
153
179
219
232
229
222
220
200
135
66
99
192
194
194
195
191
197
208
195
191
209
218
206
206
194
174
160
146
130
118
115
115
117
123
131
142
160
169
174
170
169
163
151
146
140
132
128
129
140
151
194
224
230
226
223
225
210
134
96
79
130
206
177
176
183
187
195
208
205
194
209
215
217
216
203
186
172
150
132
123
119
119
123
130
143
157
171
179
181
180
178
164
152
147
138
132
132
136
145
161
215
225
223
214
216
224
212
222
117
107
73
123
162
155
163
172
194
200
209
216
210
216
222
225
219
202
189
166
146
133
128
128
133
141
153
165
177
184
187
187
183
168
150
143
137
137
140
146
157
178
214
227
221
223
221
218
217
200
146
82
61
113
157
148
155
156
168
181
198
209
208
217
230
223
224
219
217
206
171
148
144
136
137
146
151
159
170
178
183
187
181
166
151
143
143
145
148
150
186
224
212
218
230
232
221
208
204
177
115
96
86
117
172
152
148
148
153
168
186
194
211
217
219
221
224
228
227
221
210
199
194
164
143
145
148
158
170
174
176
180
177
170
161
150
149
151
151
174
199
221
222
230
228
228
216
197
203
212
160
69
68
80
218
196
163
146
151
163
174
183
193
204
206
218
223
217
219
224
214
194
187
189
183
165
158
163
171
172
173
173
176
182
178
164
190
216
190
205
219
221
227
226
216
216
211
218
206
165
110
66
70
158
211
212
204
160
153
156
162
172
178
183
189
200
208
208
207
207
202
179
195
179
162
160
161
169
172
170
169
170
177
206
212
195
213
217
215
214
202
205
218
214
215
225
227
216
181
147
122
72
87
104
210
208
207
184
196
196
185
169
183
193
183
176
195
206
189
190
188
177
172
213
171
147
163
166
170
167
169
173
194
226
218
211
205
218
217
212
205
195
204
233
223
223
221
210
203
213
131
87
59
63
204
208
201
186
195
210
203
192
227
226
214
191
216
217
190
175
171
167
159
200
180
198
165
168
166
173
199
210
225
218
209
201
206
216
221
217
226
216
211
229
220
208
207
198
159
128
98
71
64
67
192
190
179
179
205
198
197
204
208
200
207
226
204
217
201
172
165
172
179
208
238
212
203
190
174
191
208
204
218
208
216
220
215
210
214
233
227
218
212
217
212
200
213
199
150
128
78
50
62
74
173
167
168
175
189
192
193
198
193
188
204
188
174
232
228
206
170
176
147
183
243
211
198
218
219
172
198
173
203
203
198
208
217
217
221
229
225
213
213
214
204
192
204
184
156
116
69
79
67
62
161
153
150
160
173
170
185
190
195
201
187
164
179
221
220
183
174
170
169
209
241
236
238
219
223
202
144
180
195
238
208
209
214
214
206
210
217
216
215
214
206
201
198
195
186
137
55
37
55
66
169
161
157
162
159
152
176
178
176
170
163
171
176
182
185
172
172
185
196
193
242
247
227
208
220
218
194
179
189
216
239
200
183
171
179
231
216
214
211
214
217
234
224
202
139
87
64
72
72
106
182
175
170
169
158
138
173
153
141
150
163
160
169
158
156
172
179
205
252
243
233
237
229
220
213
216
212
163
166
207
246
227
188
167
186
228
235
239
233
216
217
217
216
208
185
153
77
99
96
91
182
175
173
136
134
87
140
124
133
129
148
159
158
152
147
158
180
182
239
240
219
189
236
232
218
233
216
210
206
185
205
241
243
218
181
178
195
222
242
233
213
212
202
193
159
113
70
74
80
74
142
130
129
60
106
58
128
91
126
140
114
144
156
169
173
177
177
193
242
250
249
229
209
236
224
231
221
210
197
184
222
217
220
213
213
184
170
176
192
206
235
225
179
128
81
48
61
91
75
75
132
124
137
41
47
36
115
86
123
165
73
161
161
174
171
172
170
161
204
252
244
222
222
233
242
243
235
216
213
200
206
221
224
219
216
212
212
200
189
182
207
227
222
174
106
75
59
66
104
82
91
103
130
25
6
33
100
40
74
128
51
113
153
171
139
152
166
169
185
248
252
248
234
232
243
249
250
228
212
219
218
217
219
220
215
212
214
217
217
203
204
213
231
215
192
149
85
71
69
58
32
57
23
7
6
16
19
9
34
61
30
52
136
181
121
132
172
160
190
200
231
241
248
229
226
242
243
252
249
238
225
218
218
224
227
215
224
232
236
240
217
203
221
222
150
106
75
81
78
60
14
4
6
6
9
10
4
8
13
11
18
25
87
164
70
81
138
127
191
172
182
162
254
250
227
224
235
231
232
244
247
231
223
225
234
241
242
238
237
242
244
236
215
164
98
80
49
42
52
56
23
19
8
12
8
22
12
16
22
17
36
23
33
65
40
44
66
75
136
148
114
104
197
234
248
227
210
216
223
222
219
224
241
240
224
208
205
210
215
228
229
231
184
205
115
129
68
39
48
52
16
29
9
13
10
11
14
7
21
32
40
32
32
43
42
54
57
58
69
86
68
61
103
148
212
236
211
194
189
211
220
217
205
194
223
226
216
208
189
174
160
129
98
127
80
60
83
63
61
66
11
21
18
20
21
17
18
10
23
37
48
35
43
52
53
67
64
62
62
69
62
63
66
79
102
167
183
209
175
180
178
182
162
157
178
173
146
166
180
134
172
104
76
92
50
51
45
50
74
48
32
11
10
12
38
43
30
21
37
46
62
47
46
49
53
67
65
61
64
76
74
73
73
64
68
93
97
135
116
155
157
116
86
87
111
136
105
128
115
73
97
60
50
42
33
35
34
43
93
49
42
40
37
26
34
36
38
43
36
44
54
63
66
70
70
65
58
67
84
96
85
96
93
94
99
96
95
99
99
89
94
91
94
99
89
96
84
90
89
95
92
91
93
73
60
41
60
120
85
47
56
72
90
89
88
62
61
88
91
91
78
69
85
100
101
99
95
95
105
121
114
112
117
97
101
120
134
132
164
222
189
125
129
120
97
84
83
83
83
82
100
106
89
76
57
43
89
137
124
58
87
70
98
90
98
103
100
99
109
101
94
74
76
90
98
110
121
118
117
124
132
132
144
158
164
161
167
183
199
198
203
206
199
181
161
155
130
126
126
129
146
139
145
132
67
66
130
137
142
108
85
75
70
73
80
80
97
106
95
90
97
98
98
91
96
105
118
128
144
163
167
171
182
200
209
208
206
206
206
204
200
194
190
187
182
184
177
164
147
150
146
134
126
124
101
106
135
137
124
115
86
81
79
81
89
96
107
105
96
96
104
111
115
119
128
148
165
171
186
198
202
206
200
205
219
221
219
220
219
217
214
211
208
205
198
193
195
190
166
154
133
109
107
117
122
150
133
124
105
89
103
95
87
89
110
129
133
133
119
121
137
147
156
161
170
180
186
190
197
202
209
202
174
175
177
204
212
217
218
215
208
191
207
202
190
162
170
157
139
132
105
91
92
80
112
117
106
93
108
76
121
109
95
102
131
152
157
158
155
158
165
165
168
172
177
181
181
184
191
196
200
182
157
151
152
164
169
178
185
180
174
154
156
166
160
149
146
126
131
111
118
114
76
67
97
94
87
127
147
93
134
129
114
118
135
145
149
149
150
152
156
156
158
161
165
167
161
157
169
174
178
168
141
130
121
123
114
119
123
126
131
142
122
123
128
129
114
101
116
134
96
76
78
97
107
79
94
142
155
137
140
139
133
136
145
150
148
148
150
151
153
151
151
151
154
150
145
147
148
150
149
139
120
107
108
98
101
98
101
111
99
93
100
101
121
108
112
125
112
128
92
106
83
93
114
112
132
129
154
131
141
146
142
147
148
153
152
153
154
154
155
153
140
136
141
138
138
133
128
120
128
104
92
101
128
96
89
114
117
95
98
94
79
117
125
105
120
104
107
96
110
140
117
128
122
123
119
111
113
105
139
143
144
146
147
150
152
154
154
151
150
137
123
114
109
120
102
104
98
124
118
128
92
105
123
105
112
87
86
108
107
94
93
115
111
118
97
96
97
103
128
100
121
127
89
103
91
103
87
84
