P2
# CREATOR: GIMP PNM Filter Version 1.1
50 40
255
64
64
64
64
64
66
65
66
66
66
66
67
67
68
67
67
67
66
66
66
66
66
66
66
66
66
64
63
63
63
63
63
63
63
62
61
63
62
62
61
61
61
61
61
60
60
58
56
58
52
67
66
66
67
67
67
68
69
69
69
70
70
70
69
70
70
69
69
69
68
68
68
68
67
69
67
67
66
66
66
66
66
66
66
66
65
66
67
67
67
68
70
70
69
66
63
61
58
59
53
69
68
69
70
70
70
71
70
72
71
72
71
71
70
72
70
70
70
70
70
71
71
70
77
72
69
69
70
70
69
69
69
69
68
68
70
70
71
74
78
79
86
86
81
75
68
65
63
61
59
70
72
70
66
66
64
59
67
71
75
73
72
72
75
74
74
72
72
73
72
72
73
72
93
76
73
71
72
71
71
71
71
70
70
69
70
72
78
83
110
180
211
204
149
98
78
68
66
62
61
71
60
45
37
38
44
50
39
56
72
74
75
75
75
75
75
75
75
75
75
75
74
78
95
77
75
75
74
72
73
73
72
72
72
71
73
76
84
110
199
223
221
219
221
155
89
76
67
64
62
36
33
29
30
31
35
42
41
39
60
73
77
78
77
77
77
76
76
79
77
77
78
105
98
76
76
76
75
75
75
74
74
75
73
75
76
81
91
152
222
208
212
206
203
195
107
80
69
64
62
26
23
23
26
27
34
38
42
35
44
69
77
77
78
77
79
78
78
79
78
77
87
187
119
76
76
76
76
75
76
75
75
75
74
75
76
81
95
180
212
209
210
204
196
195
114
87
73
66
65
26
22
23
23
25
27
31
38
38
41
51
73
78
77
77
78
80
79
78
79
79
94
231
116
75
76
76
75
74
74
73
74
75
75
75
75
79
94
164
212
205
205
196
191
180
107
87
74
67
65
35
35
34
38
41
41
32
39
41
37
43
68
79
79
79
79
80
81
81
88
90
176
225
200
105
82
77
76
76
77
77
77
76
75
76
77
80
92
121
194
195
190
181
176
145
102
84
75
70
69
36
38
37
36
37
44
41
42
40
38
43
63
82
80
80
80
81
81
97
191
211
222
233
212
208
173
130
86
77
78
78
78
77
77
76
77
80
84
95
126
161
165
159
143
109
91
83
75
72
71
32
36
38
39
37
38
43
41
42
39
43
67
83
80
81
82
81
82
117
204
205
223
240
243
250
255
235
109
79
80
80
79
78
78
77
78
80
81
86
92
104
113
109
96
90
84
77
74
72
71
23
28
36
38
40
39
43
43
40
39
42
65
81
82
82
82
82
81
146
210
210
229
229
237
199
126
98
84
81
80
81
81
80
78
78
78
79
81
83
84
87
89
86
85
83
80
79
75
74
73
23
26
31
33
35
39
40
37
38
36
41
56
83
85
85
84
84
83
119
195
220
232
233
161
85
82
83
83
83
81
81
81
80
79
78
79
79
81
82
81
81
82
82
81
80
78
78
76
75
75
30
32
33
34
32
36
39
36
39
37
40
59
84
84
86
87
85
86
88
173
227
232
239
160
87
84
85
84
84
85
84
84
82
81
80
81
81
81
81
81
81
81
80
80
80
79
79
78
76
76
37
33
31
31
35
33
34
35
36
30
40
76
87
89
89
88
90
113
92
178
227
232
240
174
92
88
87
86
84
86
86
85
84
83
82
83
84
82
83
83
83
82
81
81
80
81
81
79
78
77
40
28
18
21
24
28
29
32
32
33
58
87
88
91
90
89
88
171
200
203
225
232
242
203
72
63
69
76
82
86
86
87
86
86
84
85
87
84
86
86
86
84
83
83
82
83
82
79
79
78
34
28
16
16
17
22
23
28
29
35
53
84
92
91
91
90
118
145
179
201
225
232
239
255
84
50
54
56
61
76
90
88
88
87
87
87
86
87
88
87
86
86
84
84
85
85
84
83
81
80
28
24
18
20
21
20
19
29
33
43
38
50
88
92
91
90
146
197
212
204
219
232
236
248
159
88
85
89
103
80
75
87
89
88
90
88
87
87
88
87
87
87
86
85
85
86
86
84
83
81
22
14
17
18
19
19
20
25
30
34
36
44
72
94
92
101
153
179
177
206
219
232
236
247
235
227
220
220
234
214
164
92
87
88
89
88
87
88
89
87
87
86
88
86
85
86
86
85
83
84
23
20
19
27
23
12
11
17
22
28
32
40
73
95
93
92
150
139
169
212
226
232
234
249
249
248
249
248
250
250
251
193
95
89
87
87
87
87
87
86
86
86
86
85
105
88
85
86
86
84
15
38
25
46
31
24
7
11
18
24
31
37
73
99
123
130
152
124
106
194
231
231
230
234
232
231
247
249
250
245
239
255
140
87
88
87
88
87
88
88
91
95
91
103
124
107
89
93
83
78
22
38
60
18
65
36
10
12
14
23
30
36
64
94
111
104
105
102
64
171
230
232
231
231
230
230
237
251
250
232
228
242
201
78
88
87
88
88
89
89
94
84
107
77
57
109
76
90
62
72
34
17
54
44
58
38
15
38
33
44
41
34
35
52
86
97
97
75
34
148
232
232
230
230
230
230
229
236
235
228
228
234
217
57
77
90
87
88
89
93
103
44
127
75
65
100
63
71
69
88
42
35
43
36
32
32
38
29
43
38
32
33
43
54
55
81
98
74
29
91
229
232
231
230
231
230
229
230
229
229
229
234
207
47
65
89
89
88
97
100
113
48
88
43
87
53
46
78
73
88
30
43
39
29
28
29
30
46
30
26
28
47
35
35
38
56
86
73
40
21
183
236
231
231
231
229
230
230
227
229
229
237
178
47
59
71
88
79
91
102
69
49
37
23
94
43
28
59
63
27
36
36
23
25
25
33
39
32
23
24
36
33
31
32
35
46
51
47
40
36
104
239
220
222
230
230
227
226
225
228
229
240
147
42
42
62
80
46
112
75
51
39
23
26
33
31
26
27
37
35
24
20
21
17
34
36
38
25
18
26
32
25
28
31
33
35
51
41
36
35
53
242
183
190
236
147
240
232
231
227
234
242
127
27
24
45
50
48
84
59
38
25
17
14
13
20
28
25
35
39
19
18
16
16
40
28
36
22
18
26
28
25
29
32
31
35
46
39
32
37
38
212
170
176
224
34
145
236
243
77
196
245
124
15
22
33
44
44
54
43
34
31
16
15
15
25
28
32
29
30
21
13
12
24
37
28
34
24
24
19
23
26
29
29
27
36
38
46
33
33
26
162
158
175
178
31
44
178
200
26
128
210
216
26
16
26
20
41
48
34
31
29
16
14
22
22
27
27
32
29
17
11
17
18
36
21
30
30
23
22
23
24
24
27
28
34
37
36
21
23
28
117
152
176
132
41
38
95
218
44
102
82
240
84
10
12
6
37
50
43
28
28
27
24
27
27
30
21
24
21
18
12
15
15
31
25
21
24
22
23
26
27
27
26
37
35
43
28
11
15
11
97
171
187
67
32
38
35
235
69
111
7
194
56
7
8
9
30
50
42
34
28
31
32
29
26
28
18
10
10
27
14
11
13
19
37
24
19
19
19
19
20
21
42
35
39
36
17
10
20
44
94
150
179
61
19
23
41
177
26
138
5
130
59
7
10
11
20
43
43
32
34
33
33
31
24
24
22
11
10
14
21
23
20
24
24
26
21
18
14
19
23
33
34
35
43
38
8
14
40
49
64
132
150
85
31
18
99
82
26
171
17
81
91
12
13
11
13
14
30
46
44
38
45
30
14
18
11
7
10
5
9
12
14
16
15
18
21
20
21
26
28
30
35
39
34
16
6
23
49
36
47
139
153
78
38
14
142
39
34
207
54
55
134
13
16
14
14
16
16
15
15
24
26
26
13
10
10
7
11
12
12
17
18
16
25
19
22
14
21
19
18
24
29
21
13
9
9
14
32
43
49
142
148
53
22
39
170
32
32
234
151
65
169
11
20
16
11
15
17
14
21
21
20
14
12
10
9
10
12
12
11
11
15
17
23
25
28
10
19
8
8
10
14
10
12
11
7
5
11
20
58
169
172
41
7
55
211
160
28
192
250
135
199
9
15
11
8
9
12
13
17
18
15
11
10
9
10
11
10
10
9
9
11
13
18
34
26
20
13
15
17
24
30
40
49
54
58
63
69
78
136
213
212
179
111
158
227
224
133
140
224
190
227
104
88
85
79
72
66
62
60
44
32
25
18
16
19
17
12
10
18
24
27
33
41
56
64
69
79
87
97
104
107
110
107
110
113
111
114
114
167
189
208
202
142
143
136
152
127
106
115
161
201
142
109
126
116
121
120
123
118
117
111
112
98
88
81
67
50
76
81
87
88
96
101
104
102
100
102
101
102
104
102
103
103
100
99
100
100
104
120
114
123
124
115
102
100
100
100
104
102
109
122
116
107
118
107
99
105
118
144
108
101
97
101
98
96
96
94
95
97
96
98
96
101
99
98
97
101
99
102
103
101
100
98
98
102
102
100
101
101
101
101
98
99
95
98
96
96
94
96
96
96
97
94
94
90
115
117
88
92
96
95
93
93
97
94
93
68
